<?xml version="1.0" encoding="UTF-8" standalone="no"?>
<!DOCTYPE svg PUBLIC "-//W3C//DTD SVG 1.1//EN"
 "http://www.w3.org/Graphics/SVG/1.1/DTD/svg11.dtd">
<!-- Generated by graphviz version 2.43.0 (0)
 -->
<!-- Title: git_basics Pages: 1 -->
<svg width="936pt" height="191pt"
 viewBox="0.00 0.00 936.00 191.00" xmlns="http://www.w3.org/2000/svg" xmlns:xlink="http://www.w3.org/1999/xlink">
<g id="graph0" class="graph" transform="scale(1 1) rotate(0) translate(4 187)">
<title>git_basics</title>
<polygon fill="white" stroke="transparent" points="-4,4 -4,-187 932,-187 932,4 -4,4"/>
<!-- task -->
<g id="node1" class="node">
<title>task</title>
<polygon fill="#880000" fill-opacity="0.133333" stroke="transparent" points="78,-170.5 0,-170.5 0,-104.5 78,-104.5 78,-170.5"/>
<polygon fill="none" stroke="#000000" stroke-opacity="0.266667" points="0,-145.5 0,-170.5 78,-170.5 78,-145.5 0,-145.5"/>
<text text-anchor="start" x="8" y="-155.3" font-family="Helvetica,Arial,sans-serif" font-size="14.00"> </text>
<text text-anchor="start" x="12" y="-155.3" font-family="Helvetica,Arial,sans-serif" font-weight="bold" font-size="14.00">Jira Task</text>
<polygon fill="none" stroke="#000000" stroke-opacity="0.266667" points="0,-104.5 0,-145.5 78,-145.5 78,-104.5 0,-104.5"/>
<text text-anchor="start" x="5" y="-129.3" font-family="Helvetica,Arial,sans-serif" font-size="14.00">Description</text>
</g>
<!-- swag2nginx -->
<g id="node2" class="node">
<title>swag2nginx</title>
<polygon fill="#ff8800" fill-opacity="0.133333" stroke="transparent" points="250,-183 154,-183 154,-92 250,-92 250,-183"/>
<polygon fill="none" stroke="#000000" stroke-opacity="0.266667" points="154,-157.5 154,-182.5 250,-182.5 250,-157.5 154,-157.5"/>
<text text-anchor="start" x="159" y="-167.3" font-family="Helvetica,Arial,sans-serif" font-size="14.00"> </text>
<text text-anchor="start" x="163" y="-167.3" font-family="Helvetica,Arial,sans-serif" font-weight="bold" font-size="14.00">Swag2Nginx</text>
<polygon fill="none" stroke="#000000" stroke-opacity="0.266667" points="154,-91.5 154,-157.5 250,-157.5 250,-91.5 154,-91.5"/>
<text text-anchor="start" x="159" y="-142.3" font-family="Helvetica,Arial,sans-serif" font-style="italic" font-size="14.00">Input: </text>
<text text-anchor="start" x="159" y="-114.3" font-family="Helvetica,Arial,sans-serif" font-size="14.00">openapi.json</text>
<text text-anchor="start" x="159" y="-100.3" font-family="Helvetica,Arial,sans-serif" font-size="14.00">go template</text>
</g>
<!-- task&#45;&gt;swag2nginx -->
<g id="edge1" class="edge">
<title>task&#45;&gt;swag2nginx</title>
<path fill="none" stroke="#880000" stroke-width="2" stroke-dasharray="1,5" stroke-opacity="0.533333" d="M78.15,-137.5C99.25,-137.5 125.77,-137.5 148.76,-137.5"/>
<polygon fill="#880000" fill-opacity="0.533333" stroke="#880000" stroke-width="2" stroke-opacity="0.533333" points="148.91,-139.25 153.91,-137.5 148.91,-135.75 148.91,-139.25"/>
<text text-anchor="middle" x="116" y="-141.3" font-family="Helvetica,Arial,sans-serif" font-size="14.00">review</text>
</g>
<!-- include -->
<g id="node3" class="node">
<title>include</title>
<polygon fill="#0044ff" fill-opacity="0.133333" stroke="transparent" points="389,-150 287,-150 287,-125 389,-125 389,-150"/>
<polygon fill="none" stroke="#000000" stroke-opacity="0.266667" points="287,-124.5 287,-149.5 389,-149.5 389,-124.5 287,-124.5"/>
<text text-anchor="start" x="292" y="-134.3" font-family="Helvetica,Arial,sans-serif" font-size="14.00"> </text>
<text text-anchor="start" x="296" y="-134.3" font-family="Helvetica,Arial,sans-serif" font-weight="bold" font-size="14.00">nginx include</text>
</g>
<!-- swag2nginx&#45;&gt;include -->
<g id="edge2" class="edge">
<title>swag2nginx&#45;&gt;include</title>
<path fill="none" stroke="#880000" stroke-width="2" stroke-dasharray="1,5" stroke-opacity="0.533333" d="M250.24,-137.5C260.35,-137.5 271.1,-137.5 281.49,-137.5"/>
<polygon fill="#880000" fill-opacity="0.533333" stroke="#880000" stroke-width="2" stroke-opacity="0.533333" points="281.55,-139.25 286.55,-137.5 281.55,-135.75 281.55,-139.25"/>
</g>
<!-- template -->
<g id="node4" class="node">
<title>template</title>
<polygon fill="#0044ff" fill-opacity="0.133333" stroke="transparent" points="573,-175 466,-175 466,-150 573,-150 573,-175"/>
<polygon fill="none" stroke="#000000" stroke-opacity="0.266667" points="466.5,-149.5 466.5,-174.5 573.5,-174.5 573.5,-149.5 466.5,-149.5"/>
<text text-anchor="start" x="471.5" y="-159.3" font-family="Helvetica,Arial,sans-serif" font-size="14.00"> </text>
<text text-anchor="start" x="475.5" y="-159.3" font-family="Helvetica,Arial,sans-serif" font-weight="bold" font-size="14.00">helm template</text>
</g>
<!-- include&#45;&gt;template -->
<g id="edge3" class="edge">
<title>include&#45;&gt;template</title>
<path fill="none" stroke="#880000" stroke-width="2" stroke-dasharray="1,5" stroke-opacity="0.533333" d="M389,-144.46C411.28,-147.57 437.65,-151.24 460.76,-154.46"/>
<polygon fill="#880000" fill-opacity="0.533333" stroke="#880000" stroke-width="2" stroke-opacity="0.533333" points="460.76,-156.22 465.95,-155.18 461.24,-152.76 460.76,-156.22"/>
<text text-anchor="middle" x="427.5" y="-155.3" font-family="Helvetica,Arial,sans-serif" font-size="14.00">rewrite</text>
</g>
<!-- helm -->
<g id="node7" class="node">
<title>helm</title>
<polygon fill="#00ff00" fill-opacity="0.133333" stroke="transparent" points="693,-161 610,-161 610,-28 693,-28 693,-161"/>
<polygon fill="none" stroke="#000000" stroke-opacity="0.266667" points="610.5,-135.5 610.5,-160.5 693.5,-160.5 693.5,-135.5 610.5,-135.5"/>
<text text-anchor="start" x="615.5" y="-145.3" font-family="Helvetica,Arial,sans-serif" font-weight="bold" font-size="14.00">helm</text>
<polygon fill="none" stroke="#000000" stroke-opacity="0.266667" points="610.5,-27.5 610.5,-135.5 693.5,-135.5 693.5,-27.5 610.5,-27.5"/>
<text text-anchor="start" x="615.5" y="-120.3" font-family="Helvetica,Arial,sans-serif" font-style="italic" font-size="14.00">Input: </text>
<text text-anchor="start" x="615.5" y="-92.3" font-family="Helvetica,Arial,sans-serif" font-size="14.00">values.yaml</text>
<text text-anchor="start" x="615.5" y="-64.3" font-family="Helvetica,Arial,sans-serif" font-size="14.00">templates</text>
<text text-anchor="start" x="615.5" y="-50.3" font-family="Helvetica,Arial,sans-serif" font-size="14.00">includes</text>
<text text-anchor="start" x="615.5" y="-36.3" font-family="Helvetica,Arial,sans-serif" font-size="14.00">plugins</text>
</g>
<!-- include&#45;&gt;helm -->
<g id="edge5" class="edge">
<title>include&#45;&gt;helm</title>
<path fill="none" stroke="#880000" stroke-width="2" stroke-dasharray="1,5" stroke-opacity="0.533333" d="M389.05,-130.59C448.48,-122.39 546.79,-108.82 604.42,-100.86"/>
<polygon fill="#880000" fill-opacity="0.533333" stroke="#880000" stroke-width="2" stroke-opacity="0.533333" points="604.81,-102.57 609.53,-100.16 604.33,-99.11 604.81,-102.57"/>
</g>
<!-- template&#45;&gt;helm -->
<g id="edge6" class="edge">
<title>template&#45;&gt;helm</title>
<path fill="none" stroke="#880000" stroke-width="2" stroke-dasharray="1,5" stroke-opacity="0.533333" d="M559.12,-149.93C570,-145.85 581.68,-140.96 592,-135.5 596.44,-133.15 600.94,-130.52 605.37,-127.76"/>
<polygon fill="#880000" fill-opacity="0.533333" stroke="#880000" stroke-width="2" stroke-opacity="0.533333" points="606.49,-129.12 609.77,-124.95 604.61,-126.16 606.49,-129.12"/>
</g>
<!-- value -->
<g id="node5" class="node">
<title>value</title>
<polygon fill="#880088" fill-opacity="0.133333" stroke="transparent" points="563.5,-93.5 475.5,-93.5 475.5,-43.5 563.5,-43.5 563.5,-93.5"/>
<polygon fill="none" stroke="#000000" stroke-opacity="0.266667" points="475.5,-68.5 475.5,-93.5 563.5,-93.5 563.5,-68.5 475.5,-68.5"/>
<text text-anchor="start" x="480.5" y="-78.3" font-family="Helvetica,Arial,sans-serif" font-weight="bold" font-size="14.00">values.yaml</text>
<polygon fill="none" stroke="#000000" stroke-opacity="0.266667" points="475.5,-43.5 475.5,-68.5 563.5,-68.5 563.5,-43.5 475.5,-43.5"/>
<text text-anchor="start" x="480.5" y="-52.3" font-family="Helvetica,Arial,sans-serif" font-size="14.00">config</text>
</g>
<!-- value&#45;&gt;helm -->
<g id="edge4" class="edge">
<title>value&#45;&gt;helm</title>
<path fill="none" stroke="#880000" stroke-width="2" stroke-dasharray="1,5" stroke-opacity="0.533333" d="M563.79,-77.16C576.83,-79.77 591.19,-82.64 604.4,-85.28"/>
<polygon fill="#880000" fill-opacity="0.533333" stroke="#880000" stroke-width="2" stroke-opacity="0.533333" points="604.36,-87.06 609.6,-86.32 605.04,-83.62 604.36,-87.06"/>
</g>
<!-- plugin -->
<g id="node6" class="node">
<title>plugin</title>
<polygon fill="#0044ff" fill-opacity="0.133333" stroke="transparent" points="562.5,-25 476.5,-25 476.5,0 562.5,0 562.5,-25"/>
<polygon fill="none" stroke="#000000" stroke-opacity="0.266667" points="476.5,0.5 476.5,-24.5 562.5,-24.5 562.5,0.5 476.5,0.5"/>
<text text-anchor="start" x="481.5" y="-9.3" font-family="Helvetica,Arial,sans-serif" font-weight="bold" font-size="14.00">lua/js/nginx</text>
</g>
<!-- plugin&#45;&gt;helm -->
<g id="edge7" class="edge">
<title>plugin&#45;&gt;helm</title>
<path fill="none" stroke="#880000" stroke-width="2" stroke-dasharray="1,5" stroke-opacity="0.533333" d="M554.18,-25.07C560.58,-27.88 567.11,-31.07 573,-34.5 584.03,-40.93 595.25,-48.75 605.61,-56.58"/>
<polygon fill="#880000" fill-opacity="0.533333" stroke="#880000" stroke-width="2" stroke-opacity="0.533333" points="604.65,-58.05 609.68,-59.7 606.78,-55.27 604.65,-58.05"/>
</g>
<!-- deploy -->
<g id="node8" class="node">
<title>deploy</title>
<polygon fill="#ff0000" stroke="transparent" points="928,-107 867,-107 867,-82 928,-82 928,-107"/>
<polygon fill="none" stroke="#000000" stroke-opacity="0.266667" points="867.5,-81.5 867.5,-106.5 928.5,-106.5 928.5,-81.5 867.5,-81.5"/>
<text text-anchor="start" x="872.5" y="-91.3" font-family="Helvetica,Arial,sans-serif" font-weight="bold" font-size="14.00">Deploy!</text>
</g>
<!-- helm&#45;&gt;deploy -->
<g id="edge8" class="edge">
<title>helm&#45;&gt;deploy</title>
<path fill="none" stroke="#880000" stroke-width="2" stroke-dasharray="1,5" stroke-opacity="0.533333" d="M693.07,-94.5C740.2,-94.5 817.2,-94.5 861.72,-94.5"/>
<polygon fill="#880000" fill-opacity="0.533333" stroke="#880000" stroke-width="2" stroke-opacity="0.533333" points="861.98,-96.25 866.98,-94.5 861.98,-92.75 861.98,-96.25"/>
<text text-anchor="middle" x="780" y="-98.3" font-family="Helvetica,Arial,sans-serif" font-size="14.00">helm install/upgrade ...</text>
</g>
</g>
</svg>
