<?xml version="1.0" encoding="UTF-8" standalone="no"?>
<!DOCTYPE svg PUBLIC "-//W3C//DTD SVG 1.1//EN"
 "http://www.w3.org/Graphics/SVG/1.1/DTD/svg11.dtd">
<!-- Generated by graphviz version 2.43.0 (0)
 -->
<!-- Title: git_basics Pages: 1 -->
<svg width="542pt" height="125pt"
 viewBox="0.00 0.00 542.00 125.00" xmlns="http://www.w3.org/2000/svg" xmlns:xlink="http://www.w3.org/1999/xlink">
<g id="graph0" class="graph" transform="scale(1 1) rotate(0) translate(4 121)">
<title>git_basics</title>
<polygon fill="white" stroke="transparent" points="-4,4 -4,-121 538,-121 538,4 -4,4"/>
<text text-anchor="middle" x="267" y="-97" font-family="Helvetica,Arial,sans-serif" font-size="20.00">Proces přidávání nových služeb</text>
<!-- task -->
<g id="node1" class="node">
<title>task</title>
<polygon fill="#880000" fill-opacity="0.133333" stroke="transparent" points="72,-63 0,-63 0,0 72,0 72,-63"/>
<polygon fill="none" stroke="#000000" stroke-opacity="0.266667" points="0,-37.5 0,-62.5 72,-62.5 72,-37.5 0,-37.5"/>
<text text-anchor="start" x="5" y="-47.3" font-family="Helvetica,Arial,sans-serif" font-size="14.00"> </text>
<text text-anchor="start" x="9" y="-47.3" font-family="Helvetica,Arial,sans-serif" font-weight="bold" font-size="14.00">Jira Task</text>
<polygon fill="none" stroke="#000000" stroke-opacity="0.266667" points="0,0.5 0,-37.5 72,-37.5 72,0.5 0,0.5"/>
<text text-anchor="start" x="5" y="-22.3" font-family="Helvetica,Arial,sans-serif" font-style="italic" font-size="14.00">Input: </text>
<text text-anchor="start" x="5" y="-8.3" font-family="Helvetica,Arial,sans-serif" font-size="14.00">openapi</text>
</g>
<!-- include -->
<g id="node2" class="node">
<title>include</title>
<polygon fill="#ff8800" fill-opacity="0.133333" stroke="transparent" points="327,-44 242,-44 242,-19 327,-19 327,-44"/>
<polygon fill="none" stroke="#000000" stroke-opacity="0.266667" points="242.5,-18.5 242.5,-43.5 327.5,-43.5 327.5,-18.5 242.5,-18.5"/>
<text text-anchor="start" x="247.5" y="-28.3" font-family="Helvetica,Arial,sans-serif" font-size="14.00"> </text>
<text text-anchor="start" x="251.5" y="-28.3" font-family="Helvetica,Arial,sans-serif" font-weight="bold" font-size="14.00">Include file</text>
</g>
<!-- task&#45;&gt;include -->
<g id="edge1" class="edge">
<title>task&#45;&gt;include</title>
<path fill="none" stroke="#880000" stroke-width="2" stroke-dasharray="1,5" stroke-opacity="0.533333" d="M72.06,-31.5C115.27,-31.5 188.88,-31.5 236.84,-31.5"/>
<polygon fill="#880000" fill-opacity="0.533333" stroke="#880000" stroke-width="2" stroke-opacity="0.533333" points="236.98,-33.25 241.98,-31.5 236.98,-29.75 236.98,-33.25"/>
<text text-anchor="middle" x="157" y="-35.3" font-family="Helvetica,Arial,sans-serif" font-size="14.00">swag2nginx &lt;URL&gt; ...</text>
</g>
<!-- template -->
<g id="node3" class="node">
<title>template</title>
<polygon fill="#0044ff" fill-opacity="0.133333" stroke="transparent" points="534,-44 403,-44 403,-19 534,-19 534,-44"/>
<polygon fill="none" stroke="#000000" stroke-opacity="0.266667" points="403.5,-18.5 403.5,-43.5 534.5,-43.5 534.5,-18.5 403.5,-18.5"/>
<text text-anchor="start" x="408.5" y="-28.3" font-family="Helvetica,Arial,sans-serif" font-size="14.00"> </text>
<text text-anchor="start" x="412.5" y="-28.3" font-family="Helvetica,Arial,sans-serif" font-weight="bold" font-size="14.00">helm subtemplate</text>
</g>
<!-- include&#45;&gt;template -->
<g id="edge2" class="edge">
<title>include&#45;&gt;template</title>
<path fill="none" stroke="#880000" stroke-width="2" stroke-dasharray="1,5" stroke-opacity="0.533333" d="M327.25,-31.5C348.12,-31.5 373.94,-31.5 397.71,-31.5"/>
<polygon fill="#880000" fill-opacity="0.533333" stroke="#880000" stroke-width="2" stroke-opacity="0.533333" points="397.75,-33.25 402.75,-31.5 397.75,-29.75 397.75,-33.25"/>
<text text-anchor="middle" x="365" y="-35.3" font-family="Helvetica,Arial,sans-serif" font-size="14.00">review</text>
</g>
</g>
</svg>
