<?xml version="1.0" encoding="UTF-8" standalone="no"?>
<svg
   xmlns:dc="http://purl.org/dc/elements/1.1/"
   xmlns:cc="http://creativecommons.org/ns#"
   xmlns:rdf="http://www.w3.org/1999/02/22-rdf-syntax-ns#"
   xmlns:svg="http://www.w3.org/2000/svg"
   xmlns="http://www.w3.org/2000/svg"
   xmlns:sodipodi="http://sodipodi.sourceforge.net/DTD/sodipodi-0.dtd"
   xmlns:inkscape="http://www.inkscape.org/namespaces/inkscape"
   id="svg114"
   version="1.1"
   viewBox="0 0 210 297"
   height="297mm"
   width="210mm"
   sodipodi:docname="feg-noobjects.svg"
   inkscape:version="0.92.5 (2060ec1f9f, 2020-04-08)">
  <sodipodi:namedview
     pagecolor="#ffffff"
     bordercolor="#666666"
     borderopacity="1"
     objecttolerance="10"
     gridtolerance="10"
     guidetolerance="10"
     inkscape:pageopacity="0"
     inkscape:pageshadow="2"
     inkscape:window-width="1920"
     inkscape:window-height="995"
     id="namedview307"
     showgrid="true"
     inkscape:zoom="1.6819304"
     inkscape:cx="264.95806"
     inkscape:cy="726.46446"
     inkscape:window-x="0"
     inkscape:window-y="0"
     inkscape:window-maximized="1"
     inkscape:current-layer="g261">
    <inkscape:grid
       type="xygrid"
       id="grid330" />
  </sodipodi:namedview>
  <defs
     id="defs108" />
  <metadata
     id="metadata111">
    <rdf:RDF>
      <cc:Work
         rdf:about="">
        <dc:format>image/svg+xml</dc:format>
        <dc:type
           rdf:resource="http://purl.org/dc/dcmitype/StillImage" />
        <dc:title />
      </cc:Work>
    </rdf:RDF>
  </metadata>
  <g
     id="layer1"
     transform="translate(-2.9763221,-1.3861197)">
    <g
       id="g261">
      <flowRoot
         xml:space="preserve"
         id="flowRoot8191"
         style="font-style:normal;font-weight:normal;font-size:40px;line-height:1.25;font-family:sans-serif;letter-spacing:0px;word-spacing:0px;fill:#000000;fill-opacity:1;stroke:none"
         transform="matrix(0.18256517,0,0,0.18256517,-32.552545,57.480502)"><flowRegion
           id="flowRegion8193"><rect
             id="rect8195"
             width="380"
             height="108"
             x="78"
             y="388.51965" /></flowRegion><flowPara
           id="flowPara8197"
           style="font-style:normal;font-variant:normal;font-weight:normal;font-stretch:normal;font-size:30.91742325px;font-family:Arial;-inkscape-font-specification:'Arial, Normal';font-variant-ligatures:normal;font-variant-caps:normal;font-variant-numeric:normal;font-feature-settings:normal;text-align:center;writing-mode:lr-tb;text-anchor:middle">In-house</flowPara><flowPara
           id="flowPara8251"
           style="font-style:normal;font-variant:normal;font-weight:normal;font-stretch:normal;font-size:30.91742325px;font-family:Arial;-inkscape-font-specification:'Arial, Normal';font-variant-ligatures:normal;font-variant-caps:normal;font-variant-numeric:normal;font-feature-settings:normal;text-align:center;writing-mode:lr-tb;text-anchor:middle">vývoj</flowPara></flowRoot>      <flowRoot
         xml:space="preserve"
         id="flowRoot8191-2"
         style="font-style:normal;font-variant:normal;font-weight:normal;font-stretch:normal;font-size:39.99941635px;line-height:1.25;font-family:sans-serif;-inkscape-font-specification:'sans-serif, Normal';font-variant-ligatures:normal;font-variant-caps:normal;font-variant-numeric:normal;font-feature-settings:normal;text-align:center;letter-spacing:0px;word-spacing:0px;writing-mode:lr-tb;text-anchor:middle;fill:#000000;fill-opacity:1;stroke:none"
         transform="matrix(0.18256517,0,0,0.18256517,125.28075,57.589174)"><flowRegion
           id="flowRegion8193-1"
           style="font-style:normal;font-variant:normal;font-weight:normal;font-stretch:normal;font-size:39.99941635px;font-family:sans-serif;-inkscape-font-specification:'sans-serif, Normal';font-variant-ligatures:normal;font-variant-caps:normal;font-variant-numeric:normal;font-feature-settings:normal;text-align:center;writing-mode:lr-tb;text-anchor:middle"><rect
             id="rect8195-2"
             width="380"
             height="108"
             x="78"
             y="388.51965"
             style="font-style:normal;font-variant:normal;font-weight:normal;font-stretch:normal;font-size:39.99941635px;font-family:sans-serif;-inkscape-font-specification:'sans-serif, Normal';font-variant-ligatures:normal;font-variant-caps:normal;font-variant-numeric:normal;font-feature-settings:normal;text-align:center;writing-mode:lr-tb;text-anchor:middle" /></flowRegion><flowPara
           id="flowPara8253"
           style="font-style:normal;font-variant:normal;font-weight:normal;font-stretch:normal;font-size:30.91742325px;font-family:Arial;-inkscape-font-specification:'Arial, Normal';font-variant-ligatures:normal;font-variant-caps:normal;font-variant-numeric:normal;font-feature-settings:normal;text-align:center;writing-mode:lr-tb;text-anchor:middle">Provázané </flowPara><flowPara
           style="font-style:normal;font-variant:normal;font-weight:normal;font-stretch:normal;font-size:30.91742325px;font-family:Arial;-inkscape-font-specification:'Arial, Normal';font-variant-ligatures:normal;font-variant-caps:normal;font-variant-numeric:normal;font-feature-settings:normal;text-align:center;writing-mode:lr-tb;text-anchor:middle"
           id="flowPara309">aplikace</flowPara></flowRoot>      <flowRoot
         xml:space="preserve"
         id="flowRoot8191-2-7"
         style="font-style:normal;font-weight:normal;font-size:40px;line-height:1.25;font-family:sans-serif;letter-spacing:0px;word-spacing:0px;fill:#000000;fill-opacity:1;stroke:none"
         transform="matrix(0.18256517,0,0,0.18256517,70.267961,57.489821)"><flowRegion
           id="flowRegion8193-1-3"><rect
             id="rect8195-2-1"
             width="380"
             height="108"
             x="78"
             y="388.51965" /></flowRegion><flowPara
           id="flowPara8223-1"
           style="font-style:normal;font-variant:normal;font-weight:normal;font-stretch:normal;font-size:30.91742325px;font-family:Arial;-inkscape-font-specification:'Arial, Normal';font-variant-ligatures:normal;font-variant-caps:normal;font-variant-numeric:normal;font-feature-settings:normal;text-align:start;writing-mode:lr-tb;text-anchor:start">Openshift</flowPara></flowRoot>      <path
         style="fill:#da2430;stroke-width:0.08327977"
         d="m 92.270889,116.51578 -3.40357,1.23837 c 0.0437,0.54565 0.13759,1.08464 0.26983,1.6128 l 3.23276,-1.17733 c -0.10355,-0.54565 -0.14067,-1.10928 -0.0983,-1.67392 m 15.039911,-3.76342 c -0.23736,-0.4896 -0.51192,-0.96279 -0.82997,-1.40876 l -3.40256,1.23837 c 0.396,0.40508 0.72812,0.86029 0.99993,1.34714 l 3.23268,-1.17691 v 1.6e-4 z"
         id="path7830"
         inkscape:connector-curvature="0" />
      <path
         style="fill:#da2430;stroke-width:0.08327977"
         d="m 101.27428,112.73221 c -0.42808,-0.37142 -0.9116,-0.69205 -1.449741,-0.94306 h -2.5e-4 c -3.15956,-1.47305 -6.92963,-0.1026 -8.40267,3.0582 a 6.1607054,6.1607054 0 0 0 -0.22095,0.54024 c -0.18387,0.53491 -0.29131,1.08181 -0.33237,1.62779 l -0.0122,0.005 -7.9e-4,0.0119 -2.04835,0.74535 -1.31798,0.4871 -8e-4,-0.007 -0.0362,0.0132 c -0.12789,-1.61854 0.14491,-3.29055 0.87886,-4.86445 a 9.8230171,9.8230171 0 0 1 0.30705,-0.60345 c 2.41971,-4.50676 7.92532,-6.39055 12.568511,-4.19147 a 9.6033249,9.6033249 0 0 1 2.54478,1.75504 9.7101734,9.7101734 0 0 1 1.31416,1.49404 l -3.40257,1.2387 a 6.636566,6.636566 0 0 0 -0.0529,-0.0534 l -0.0103,0.003 a 6.5466238,6.5466238 0 0 0 -0.32636,-0.31629 z"
         id="path7832"
         inkscape:connector-curvature="0" />
      <path
         style="fill:#e82429;stroke-width:0.08327977"
         d="m 87.642279,123.76137 -0.005,0.002 a 9.8606597,9.8606597 0 0 1 -1.52051,-3.29562 l 3.23333,-1.17757 1.6e-4,2.3e-4 0.003,0.0104 0.021,-0.008 5.3e-4,10e-4 c 0.16607,0.87943 0.51176,1.71847 1.01586,2.45625 a 6.269885,6.269885 0 0 0 0.64307,0.77667 l -0.0135,0.005 0.0245,0.0257 -3.37183,1.24669 c -0.009,-0.0142 -0.02,-0.0286 -0.0299,-0.043 z"
         id="path7834"
         inkscape:connector-curvature="0" />
      <path
         style="fill:#da2430;stroke-width:0.08327977"
         d="m 100.48435,122.89118 c -1.753111,1.08406 -4.001831,1.2935 -6.005541,0.35911 a 6.2575596,6.2575596 0 0 1 -1.84199,-1.30708 l -3.39549,1.2362 0.0261,0.0364 -0.001,6.9e-4 c 0.93356,1.33381 2.20708,2.44876 3.76974,3.18945 3.37034,1.59589 7.194281,1.04108 9.963091,-1.10629 1.23987,-0.92873 2.27495,-2.1666 2.97417,-3.66597 0.73444,-1.57358 1.00569,-3.24492 0.87569,-4.86221 l -0.0945,0.0345 c -7.9e-4,-0.0173 -0.002,-0.0346 -0.003,-0.052 l -3.37198,1.24562 1.7e-4,2.3e-4 a 6.3673223,6.3673223 0 0 1 -0.56682,2.20358 c -0.52591,1.14535 -1.34613,2.05768 -2.32683,2.68769 z"
         id="path7836"
         inkscape:connector-curvature="0" />
      <path
         style="fill:#e82429;stroke-width:0.08327977"
         d="m 104.23919,113.87056 0.0506,-0.0185 v -9e-5 a 9.8046958,9.8046958 0 0 1 0.95387,3.50233 l -3.39557,1.23537 0.001,-0.0253 -0.0642,0.0237 c 0.0925,-1.25652 -0.18945,-2.50614 -0.78573,-3.59127 l 3.21027,-1.18674 1.7e-4,-2.3e-4 c 0.0103,0.0202 0.0192,0.0405 0.0288,0.0608 z"
         id="path7838"
         inkscape:connector-curvature="0" />
      <path
         style="fill:#c22035;stroke-width:0.08327977"
         d="m 92.275059,116.49588 -3.3795,1.24886 c 0.0433,0.55048 0.13657,1.09396 0.26808,1.62662 l 3.21009,-1.1874 c -0.10383,-0.55148 -0.14116,-1.11911 -0.0974,-1.68842 m 14.933821,-3.79481 c -0.23567,-0.49376 -0.5085,-0.97087 -0.82431,-1.42066 l -3.37858,1.24886 c 0.39308,0.40857 0.72286,0.86761 0.99269,1.35871 l 3.20977,-1.18724 5.3e-4,2.3e-4 z"
         id="path7840"
         inkscape:connector-curvature="0" />
      <path
         style="fill:#ac223b;stroke-width:0.08327977"
         d="m 88.895379,117.74499 3.37134,-1.23496 -0.0137,0.67732 -3.25257,1.22829 -0.10543,-0.67148 z m 14.112431,-5.2263 3.42388,-1.17492 0.35586,0.53708 -3.32669,1.17599 -0.45254,-0.53841 z"
         id="path7842"
         inkscape:connector-curvature="0" />
      <path
         style="fill:#b92135;stroke-width:0.08327977"
         d="m 89.266479,123.20382 3.37534,-1.2283 1.02084,0.96313 -3.53964,1.32881 -0.85636,-1.06398 z m 17.540041,-6.44078 -3.42819,1.2362 -0.2525,1.37229 3.65532,-1.30275 0.0259,-1.30557 z"
         id="path7844"
         inkscape:connector-curvature="0" />
      <g
         id="g7945"
         transform="matrix(0.22151964,0,0,0.22151964,2.6803884,107.61692)">
        <path
           class="st0"
           d="m 52.8,74.65 c 3.3,9.72 17.1,10.07 20.2,0 3.65,3.29 14.46,3.94 18.48,6.19 1.27,0.71 2.42,1.61 3.34,2.83 0.62,0.82 1.45,2.33 2.07,4.02 H 28.9 c 0.63,-1.69 1.45,-3.2 2.07,-4.02 0.92,-1.22 2.07,-2.12 3.34,-2.83 4.03,-2.24 14.84,-2.9 18.49,-6.19 z M 50.51,0 H 75.3 c 1.07,0 1.94,0.87 1.94,1.94 v 17.41 c 0,1.07 -0.87,1.94 -1.94,1.94 H 50.51 c -1.07,0 -1.94,-0.87 -1.94,-1.94 V 1.94 C 48.57,0.87 49.44,0 50.51,0 Z M 76.09,5.43 H 49.8 v 14.11 c 0,0.15 0.06,0.28 0.16,0.38 0.1,0.1 0.23,0.16 0.38,0.16 h 25.21 c 0.15,0 0.28,-0.06 0.38,-0.16 0.1,-0.1 0.16,-0.23 0.16,-0.38 V 5.43 Z M 73.45,2.18 c 0.53,0 0.96,0.43 0.96,0.96 0,0.53 -0.43,0.96 -0.96,0.96 -0.53,0 -0.96,-0.43 -0.96,-0.96 0,-0.53 0.43,-0.96 0.96,-0.96 z m -6.5,0 c 0.53,0 0.96,0.43 0.96,0.96 0,0.53 -0.43,0.96 -0.96,0.96 -0.53,0 -0.96,-0.43 -0.96,-0.96 0,-0.53 0.43,-0.96 0.96,-0.96 z m 3.25,0 c 0.53,0 0.96,0.43 0.96,0.96 0,0.53 -0.43,0.96 -0.96,0.96 -0.53,0 -0.96,-0.43 -0.96,-0.96 0,-0.53 0.43,-0.96 0.96,-0.96 z m -10.84,9.2 -3.16,1.19 3.16,1.2 v 2.78 L 54.45,13.77 V 11.38 L 59.36,8.6 Z m 12,0 v 2.39 l -4.91,2.78 v -2.78 l 3.16,-1.2 -3.16,-1.19 V 8.59 Z m -8.51,5.95 H 60.76 L 63.34,7.27 h 2.09 z m 57.04,38.31 c 0.04,0 0.08,0 0.12,0.01 0.25,-0.44 0.48,-0.91 0.7,-1.4 0.01,-0.01 0.01,-0.02 0.02,-0.02 0.31,-0.75 0.56,-1.52 0.71,-2.32 0.12,-0.62 0.21,-1.26 0.23,-1.91 h -3.76 c -0.07,1.91 -0.64,3.79 -1.7,5.64 z m -0.65,1.2 h -3.78 c -1.15,1.67 -2.7,3.31 -4.63,4.93 0.3,-0.04 0.61,-0.09 0.9,-0.15 0.81,-0.16 1.59,-0.4 2.35,-0.73 0.76,-0.33 1.48,-0.71 2.14,-1.16 0.66,-0.44 1.27,-0.94 1.84,-1.51 0.42,-0.43 0.83,-0.89 1.18,-1.38 z m -11.64,4.93 c -1.94,-1.62 -3.49,-3.26 -4.63,-4.93 h -3.78 c 0.36,0.49 0.76,0.95 1.2,1.39 0.57,0.57 1.17,1.07 1.84,1.51 0.66,0.44 1.37,0.83 2.14,1.16 0.01,0.01 0.02,0.01 0.02,0.02 0.75,0.31 1.52,0.56 2.32,0.71 0.29,0.05 0.59,0.09 0.89,0.14 z m -9.2,-6.13 h 3.81 c -1.06,-1.85 -1.63,-3.74 -1.7,-5.64 h -3.76 c 0.03,0.66 0.11,1.29 0.23,1.91 0.16,0.81 0.4,1.59 0.73,2.35 0.2,0.48 0.43,0.94 0.69,1.38 z M 96.75,48.8 h 3.78 c 0.14,-1.87 0.76,-3.75 1.87,-5.64 h -4 c -0.25,0.44 -0.48,0.9 -0.69,1.39 -0.01,0.01 -0.01,0.02 -0.02,0.02 -0.31,0.75 -0.56,1.52 -0.71,2.32 -0.13,0.62 -0.21,1.25 -0.23,1.91 z m 2.43,-6.84 h 3.99 c 1.14,-1.64 2.64,-3.29 4.51,-4.95 -0.34,0.04 -0.66,0.09 -0.98,0.16 -0.81,0.16 -1.59,0.4 -2.35,0.73 -0.76,0.33 -1.48,0.71 -2.14,1.16 -0.66,0.44 -1.27,0.94 -1.84,1.51 -0.43,0.43 -0.83,0.89 -1.19,1.39 z m 11.55,-4.95 c 1.88,1.66 3.38,3.31 4.51,4.95 h 3.99 c -0.36,-0.49 -0.76,-0.95 -1.2,-1.39 -0.57,-0.57 -1.17,-1.07 -1.84,-1.51 -0.66,-0.44 -1.37,-0.83 -2.14,-1.16 -0.01,-0.01 -0.02,-0.01 -0.02,-0.02 -0.75,-0.31 -1.52,-0.56 -2.32,-0.71 -0.32,-0.06 -0.65,-0.11 -0.98,-0.16 z m 9.29,6.15 h -4 c 1.11,1.89 1.73,3.77 1.87,5.64 h 3.78 c -0.03,-0.66 -0.11,-1.29 -0.23,-1.91 -0.16,-0.81 -0.4,-1.59 -0.73,-2.35 -0.21,-0.48 -0.44,-0.94 -0.69,-1.38 z m -13.56,-7.17 c 0.89,-0.18 1.8,-0.27 2.75,-0.27 0.94,0 1.85,0.09 2.75,0.27 0.88,0.17 1.72,0.43 2.55,0.79 0.01,0 0.02,0.01 0.03,0.02 0.82,0.35 1.6,0.78 2.33,1.26 0.73,0.48 1.4,1.04 2.02,1.66 0.62,0.62 1.17,1.29 1.66,2.02 0.49,0.73 0.91,1.51 1.26,2.33 0.36,0.84 0.62,1.7 0.8,2.58 0.18,0.89 0.27,1.8 0.27,2.75 0,0.94 -0.09,1.85 -0.27,2.75 -0.17,0.88 -0.43,1.72 -0.79,2.55 0,0.01 -0.01,0.02 -0.02,0.03 -0.35,0.83 -0.78,1.6 -1.26,2.33 -0.48,0.73 -1.04,1.4 -1.66,2.02 -0.62,0.62 -1.29,1.17 -2.02,1.66 -0.73,0.49 -1.51,0.91 -2.33,1.26 -0.84,0.36 -1.7,0.62 -2.58,0.8 -0.89,0.18 -1.8,0.27 -2.75,0.27 -0.94,0 -1.85,-0.09 -2.75,-0.27 -0.88,-0.17 -1.72,-0.43 -2.55,-0.79 -0.01,0 -0.02,-0.01 -0.03,-0.02 -0.82,-0.35 -1.6,-0.78 -2.33,-1.26 -0.73,-0.48 -1.4,-1.04 -2.02,-1.66 -0.62,-0.62 -1.17,-1.29 -1.66,-2.02 -0.49,-0.73 -0.91,-1.51 -1.26,-2.33 -0.36,-0.84 -0.62,-1.7 -0.8,-2.58 -0.18,-0.89 -0.27,-1.8 -0.27,-2.75 0,-0.94 0.09,-1.85 0.27,-2.75 0.17,-0.88 0.43,-1.72 0.79,-2.55 0,-0.01 0.01,-0.02 0.02,-0.03 0.35,-0.83 0.78,-1.6 1.26,-2.33 0.48,-0.73 1.04,-1.4 1.66,-2.02 0.62,-0.62 1.29,-1.17 2.02,-1.66 0.73,-0.49 1.51,-0.91 2.33,-1.26 0.83,-0.35 1.69,-0.61 2.58,-0.8 z m 3.35,1.8 v 4.17 h 3.97 c -1.05,-1.38 -2.37,-2.77 -3.97,-4.17 z m 0,5.37 v 5.64 h 6.88 c -0.16,-1.85 -0.85,-3.73 -2.08,-5.64 z m 0,6.84 v 5.64 h 5.01 c 1.19,-1.87 1.82,-3.75 1.89,-5.64 z m 0,6.84 v 4.22 c 1.7,-1.39 3.09,-2.8 4.17,-4.22 z m -1.2,4.21 v -4.22 h -4.17 c 1.07,1.42 2.46,2.83 4.17,4.22 z m 0,-5.41 V 50 h -6.91 c 0.07,1.89 0.71,3.77 1.89,5.64 z m 0,-6.84 v -5.64 h -4.81 c -1.23,1.91 -1.92,3.79 -2.07,5.64 z m 0,-6.84 v -4.17 c -1.61,1.4 -2.93,2.79 -3.97,4.17 z M 9.43,49.4 5,42.97 c 0.78,-0.94 1.46,-1.94 2.05,-2.99 0.61,-1.09 1.12,-2.23 1.56,-3.42 l 7.8,0.75 z m 1.46,0.88 7.01,-12.15 12.09,6.98 -0.96,1.66 -9.62,-5.55 c -0.52,-0.3 -1.2,-0.12 -1.5,0.4 -0.3,0.52 -0.12,1.2 0.4,1.5 l 9.62,5.55 -0.9,1.55 -9.62,-5.55 c -0.52,-0.3 -1.2,-0.12 -1.5,0.4 -0.3,0.52 -0.12,1.2 0.4,1.5 l 9.62,5.55 -0.9,1.55 -9.62,-5.55 c -0.52,-0.3 -1.2,-0.12 -1.5,0.4 -0.3,0.52 -0.12,1.2 0.4,1.5 l 9.62,5.55 -0.96,1.66 z M 3.48,40.78 0,35.73 5.97,36.31 c -0.34,0.84 -0.72,1.65 -1.15,2.42 -0.39,0.72 -0.84,1.4 -1.34,2.05 z m 13.89,43.38 c 0.51,1.14 0,2.48 -1.15,2.99 -1.14,0.51 -2.48,0 -2.99,-1.15 -1.27,-2.84 -2.31,-5.79 -3.07,-8.84 -0.75,-2.99 -1.25,-6.09 -1.48,-9.26 -0.09,-1.25 0.85,-2.34 2.11,-2.43 1.25,-0.09 2.34,0.85 2.43,2.11 0.21,2.9 0.67,5.73 1.35,8.47 0.7,2.83 1.65,5.53 2.8,8.11 z M 26.91,30 c -0.93,0.83 -2.36,0.75 -3.2,-0.18 -0.83,-0.93 -0.75,-2.36 0.18,-3.2 2.12,-1.89 4.6,-3.83 7.16,-5.5 2.3,-1.5 4.67,-2.79 6.93,-3.67 1.17,-0.45 2.48,0.13 2.93,1.3 0.45,1.17 -0.13,2.48 -1.3,2.93 -1.95,0.75 -4.04,1.9 -6.1,3.24 -2.36,1.55 -4.66,3.34 -6.6,5.08 z M 85.7,20.39 c -1.08,-0.63 -1.44,-2.02 -0.81,-3.1 0.63,-1.08 2.02,-1.44 3.1,-0.81 2.54,1.48 4.95,3.18 7.2,5.05 2.27,1.88 4.38,3.95 6.3,6.16 0.82,0.95 0.72,2.38 -0.23,3.2 -0.95,0.82 -2.38,0.72 -3.2,-0.23 -1.77,-2.04 -3.7,-3.93 -5.76,-5.65 -2.06,-1.7 -4.27,-3.25 -6.6,-4.62 z m 25.16,50.18 c 0.16,-1.24 1.3,-2.12 2.54,-1.95 1.24,0.17 2.12,1.3 1.95,2.54 -0.34,2.56 -0.85,5.05 -1.53,7.45 -0.69,2.47 -1.56,4.85 -2.57,7.15 -0.51,1.15 -1.85,1.67 -2.99,1.16 -1.15,-0.51 -1.67,-1.85 -1.16,-2.99 0.94,-2.12 1.73,-4.3 2.36,-6.54 0.62,-2.23 1.1,-4.51 1.4,-6.82 z M 50.27,54.51 c -0.69,0.03 -1.22,0.17 -1.57,0.41 -0.2,0.14 -0.35,0.31 -0.45,0.52 -0.11,0.23 -0.16,0.51 -0.15,0.84 0.03,0.95 0.53,2.19 1.49,3.62 l 0.01,0.02 v 0 l 3.12,4.97 c 1.25,1.99 2.57,4.02 4.2,5.51 1.57,1.43 3.47,2.41 5.99,2.41 2.73,0.01 4.72,-1 6.34,-2.52 1.68,-1.58 3.01,-3.74 4.32,-5.89 l 3.52,-5.8 c 0.66,-1.5 0.89,-2.5 0.74,-3.09 -0.09,-0.35 -0.48,-0.52 -1.13,-0.55 -0.14,-0.01 -0.28,-0.01 -0.43,0 -0.16,0 -0.32,0.02 -0.49,0.03 -0.09,0.01 -0.18,0 -0.27,-0.02 -0.31,0.02 -0.64,0 -0.96,-0.05 l 1.21,-4.84 C 66.82,51.49 60.13,44.85 50.68,48.75 l 0.68,5.79 c -0.4,0.04 -0.76,0.02 -1.09,-0.03 z M 77.9,53.39 c 0.87,0.26 1.42,0.81 1.65,1.7 0.25,0.98 -0.02,2.37 -0.86,4.27 v 0 c -0.02,0.03 -0.03,0.07 -0.05,0.1 l -3.56,5.86 c -1.37,2.26 -2.77,4.52 -4.62,6.27 -1.93,1.8 -4.3,3 -7.54,2.99 -3.03,-0.01 -5.31,-1.17 -7.18,-2.88 -1.81,-1.65 -3.19,-3.79 -4.5,-5.87 l -3.12,-4.97 c -1.14,-1.7 -1.74,-3.26 -1.77,-4.54 -0.02,-0.6 0.08,-1.15 0.31,-1.63 0.23,-0.5 0.59,-0.92 1.07,-1.25 0.23,-0.15 0.48,-0.28 0.76,-0.39 -0.2,-2.69 -0.28,-5.59 -0.15,-8.43 0.07,-0.67 0.2,-1.35 0.39,-2.02 0.8,-2.85 2.8,-4.16 5.28,-5.73 1.37,-0.87 2.86,-1.53 4.43,-1.97 0.99,-0.28 -0.84,-3.45 0.18,-3.56 4.96,-0.51 12.98,4.02 16.45,7.76 1.73,1.88 2.82,3.37 3.06,6.66 z"
           id="path7943"
           inkscape:connector-curvature="0" />
      </g>
      <path
         d="m 165.77817,127.10032 h 6.51716 a 1.0450375,1.0450375 0 0 0 0.45083,-0.10196 1.0641541,1.0641541 0 0 0 0.36162,-0.28515 1.0561888,1.0561888 0 0 0 0.23896,-0.6643 v -6.49007 a 1.0450375,1.0450375 0 0 0 -0.0844,-0.411 1.0545958,1.0545958 0 0 0 -0.57031,-0.56235 1.0450375,1.0450375 0 0 0 -0.39666,-0.0749 h -6.51716 a 1.0354792,1.0354792 0 0 0 -0.3871,0.0765 1.025921,1.025921 0 0 0 -0.33614,0.21347 1.0514096,1.0514096 0 0 0 -0.24054,0.34729 1.0036184,1.0036184 0 0 0 -0.0876,0.411 v 6.49007 a 1.0418514,1.0418514 0 0 0 0.0685,0.36959 1.0705263,1.0705263 0 0 0 0.19117,0.31861 l 0.0414,0.043 a 1.0960149,1.0960149 0 0 0 0.3186,0.22143 1.0689332,1.0689332 0 0 0 0.4349,0.0956 z m 8.39535,-14.89178 4.25344,-4.24866 a 0.98609486,0.98609486 0 0 1 0.35365,-0.2278 0.99406009,0.99406009 0 0 1 0.42216,-0.0542 0.95582703,0.95582703 0 0 1 0.58783,0.27719 l 4.22953,4.22953 a 0.95582703,0.95582703 0 0 1 0.21188,0.31861 0.97653658,0.97653658 0 0 1 -0.21188,1.04822 l -4.24705,4.25502 a 0.95582703,0.95582703 0 0 1 -0.30268,0.20233 0.94308263,0.94308263 0 0 1 -0.35685,0.0797 0.97335054,0.97335054 0 0 1 -0.38391,-0.0685 0.91440781,0.91440781 0 0 1 -0.32658,-0.21348 l -4.22954,-4.23431 a 0.97016435,0.97016435 0 0 1 -0.28037,-0.6181 v -0.051 a 0.97812966,0.97812966 0 0 1 0.28197,-0.69456 z m -8.39535,4.9703 h 6.51716 a 1.0450375,1.0450375 0 0 0 0.81245,-0.38712 1.029107,1.029107 0 0 0 0.17683,-0.31861 1.0498166,1.0498166 0 0 0 0.0621,-0.35206 v -6.4821 a 1.0530027,1.0530027 0 0 0 -0.0844,-0.411 1.0545958,1.0545958 0 0 0 -0.57031,-0.56394 1.0450375,1.0450375 0 0 0 -0.39029,-0.0765 h -6.52353 a 1.0354792,1.0354792 0 0 0 -0.3871,0.0765 1.025921,1.025921 0 0 0 -0.33614,0.21347 1.0514096,1.0514096 0 0 0 -0.24054,0.34728 1.0052114,1.0052114 0 0 0 -0.0876,0.41419 v 6.49007 a 1.0322931,1.0322931 0 0 0 0.0685,0.36799 1.0514096,1.0514096 0 0 0 0.19117,0.31861 l 0.0414,0.043 a 1.0960149,1.0960149 0 0 0 0.3186,0.22143 1.0689332,1.0689332 0 0 0 0.4349,0.0956 z m 6.51874,-1.04664 h -6.51874 v 0 -6.49803 c 0.55916,0 6.52034,0 6.53149,0 0,0.54801 0,6.49166 0,6.49485 z m 3.54135,10.96812 h 6.51714 a 1.0450375,1.0450375 0 0 0 0.45083,-0.10196 1.0641541,1.0641541 0 0 0 0.36163,-0.28515 1.0561888,1.0561888 0 0 0 0.23895,-0.6643 v -6.49007 a 1.0450375,1.0450375 0 0 0 -0.0844,-0.40941 1.0545958,1.0545958 0 0 0 -0.57668,-0.56394 1.0450375,1.0450375 0 0 0 -0.3903,-0.0765 h -6.51714 a 1.0753054,1.0753054 0 0 0 -0.72325,0.28994 1.0514096,1.0514096 0 0 0 -0.24055,0.34888 1.0036184,1.0036184 0 0 0 -0.0876,0.41259 v 6.49007 a 1.0418514,1.0418514 0 0 0 0.0685,0.36959 1.0705263,1.0705263 0 0 0 0.19117,0.3186 l 0.0414,0.043 a 1.0960149,1.0960149 0 0 0 0.31861,0.22143 1.0689332,1.0689332 0 0 0 0.43489,0.0956 z m 6.51874,-1.04664 h -6.51874 v 0 -6.49484 c 0.55916,0 6.52033,0 6.53148,0 0,0.54801 0,6.49166 0,6.49484 z m -10.06009,0 h -6.51874 v 0 -6.49802 c 0.55916,0 6.52034,0 6.53149,0 0,0.54801 0,6.49165 0,6.49484 z"
         id="path8023"
         style="stroke-width:0.15930451"
         inkscape:connector-curvature="0" />
    </g>
  </g>
</svg>
