<?xml version="1.0" encoding="UTF-8" standalone="no"?>
<svg
   xmlns:dc="http://purl.org/dc/elements/1.1/"
   xmlns:cc="http://creativecommons.org/ns#"
   xmlns:rdf="http://www.w3.org/1999/02/22-rdf-syntax-ns#"
   xmlns:svg="http://www.w3.org/2000/svg"
   xmlns="http://www.w3.org/2000/svg"
   xmlns:sodipodi="http://sodipodi.sourceforge.net/DTD/sodipodi-0.dtd"
   xmlns:inkscape="http://www.inkscape.org/namespaces/inkscape"
   id="svg114"
   version="1.1"
   viewBox="0 0 185.0202 37.613235"
   height="37.613235mm"
   width="185.0202mm"
   sodipodi:docname="feg.svg"
   inkscape:version="0.92.5 (2060ec1f9f, 2020-04-08)">
  <sodipodi:namedview
     pagecolor="#ffffff"
     bordercolor="#666666"
     borderopacity="1"
     objecttolerance="10"
     gridtolerance="10"
     guidetolerance="10"
     inkscape:pageopacity="0"
     inkscape:pageshadow="2"
     inkscape:window-width="1920"
     inkscape:window-height="995"
     id="namedview307"
     showgrid="true"
     inkscape:zoom="1.6819304"
     inkscape:cx="266.07655"
     inkscape:cy="147.60728"
     inkscape:window-x="0"
     inkscape:window-y="0"
     inkscape:window-maximized="1"
     inkscape:current-layer="g261"
     fit-margin-top="0"
     fit-margin-left="0"
     fit-margin-right="0"
     fit-margin-bottom="0">
    <inkscape:grid
       type="xygrid"
       id="grid330"
       originx="0.2959337"
       originy="-153.15596" />
  </sodipodi:namedview>
  <defs
     id="defs108" />
  <metadata
     id="metadata111">
    <rdf:RDF>
      <cc:Work
         rdf:about="">
        <dc:format>image/svg+xml</dc:format>
        <dc:type
           rdf:resource="http://purl.org/dc/dcmitype/StillImage" />
        <dc:title></dc:title>
      </cc:Work>
    </rdf:RDF>
  </metadata>
  <g
     id="layer1"
     transform="translate(-2.6803884,-107.61692)">
    <g
       id="g261">
      <g
         aria-label="In-house
vývoj"
         transform="matrix(0.18256517,0,0,0.18256517,-32.552545,57.480502)"
         style="font-style:normal;font-weight:normal;font-size:40px;line-height:1.25;font-family:sans-serif;letter-spacing:0px;word-spacing:0px;fill:#000000;fill-opacity:1;stroke:none"
         id="flowRoot8191">
        <path
           d="m 210.72427,423.91016 v -22.13132 h 2.9287 v 22.13132 z"
           style="font-style:normal;font-variant:normal;font-weight:normal;font-stretch:normal;font-size:30.91742325px;font-family:Arial;-inkscape-font-specification:'Arial, Normal';font-variant-ligatures:normal;font-variant-caps:normal;font-variant-numeric:normal;font-feature-settings:normal;text-align:center;writing-mode:lr-tb;text-anchor:middle"
           id="path2537"
           inkscape:connector-curvature="0" />
        <path
           d="m 218.46872,423.91016 v -16.03238 h 2.44561 v 2.27956 q 1.76628,-2.64187 5.10259,-2.64187 1.44925,0 2.65696,0.52837 1.22281,0.51328 1.82667,1.35868 0.60385,0.8454 0.8454,2.00782 0.15096,0.75482 0.15096,2.64187 v 9.85795 h -2.71735 v -9.75228 q 0,-1.6606 -0.31703,-2.47581 -0.31702,-0.8303 -1.13223,-1.31338 -0.80011,-0.49818 -1.88705,-0.49818 -1.73608,0 -3.00418,1.10203 -1.253,1.10204 -1.253,4.18171 v 8.75591 z"
           style="font-style:normal;font-variant:normal;font-weight:normal;font-stretch:normal;font-size:30.91742325px;font-family:Arial;-inkscape-font-specification:'Arial, Normal';font-variant-ligatures:normal;font-variant-caps:normal;font-variant-numeric:normal;font-feature-settings:normal;text-align:center;writing-mode:lr-tb;text-anchor:middle"
           id="path2539"
           inkscape:connector-curvature="0" />
        <path
           d="m 234.60677,417.26774 v -2.73245 h 8.34831 v 2.73245 z"
           style="font-style:normal;font-variant:normal;font-weight:normal;font-stretch:normal;font-size:30.91742325px;font-family:Arial;-inkscape-font-specification:'Arial, Normal';font-variant-ligatures:normal;font-variant-caps:normal;font-variant-numeric:normal;font-feature-settings:normal;text-align:center;writing-mode:lr-tb;text-anchor:middle"
           id="path2541"
           inkscape:connector-curvature="0" />
        <path
           d="m 245.95926,423.91016 v -22.13132 h 2.71735 v 7.9407 q 1.90215,-2.20407 4.80065,-2.20407 1.78138,0 3.09477,0.70953 1.31338,0.69443 1.87195,1.93234 0.57366,1.2379 0.57366,3.59294 v 10.15988 h -2.71735 v -10.15988 q 0,-2.03801 -0.89069,-2.95889 -0.87559,-0.93598 -2.4909,-0.93598 -1.20771,0 -2.27956,0.63405 -1.05675,0.61895 -1.50964,1.69079 -0.45289,1.07185 -0.45289,2.9589 v 8.77101 z"
           style="font-style:normal;font-variant:normal;font-weight:normal;font-stretch:normal;font-size:30.91742325px;font-family:Arial;-inkscape-font-specification:'Arial, Normal';font-variant-ligatures:normal;font-variant-caps:normal;font-variant-numeric:normal;font-feature-settings:normal;text-align:center;writing-mode:lr-tb;text-anchor:middle"
           id="path2543"
           inkscape:connector-curvature="0" />
        <path
           d="m 262.1426,415.89397 q 0,-4.45344 2.47581,-6.59713 2.0682,-1.78137 5.04219,-1.78137 3.30611,0 5.40451,2.17388 2.0984,2.15878 2.0984,5.97817 0,3.09476 -0.93597,4.87614 -0.92088,1.76628 -2.70226,2.74754 -1.76628,0.98127 -3.86468,0.98127 -3.36649,0 -5.4498,-2.15879 -2.0682,-2.15878 -2.0682,-6.21971 z m 2.79283,0 q 0,3.07966 1.34358,4.6195 1.34358,1.52473 3.38159,1.52473 2.02292,0 3.3665,-1.53983 1.34358,-1.53983 1.34358,-4.69498 0,-2.97399 -1.35868,-4.49873 -1.34358,-1.53983 -3.3514,-1.53983 -2.03801,0 -3.38159,1.52474 -1.34358,1.52473 -1.34358,4.6044 z"
           style="font-style:normal;font-variant:normal;font-weight:normal;font-stretch:normal;font-size:30.91742325px;font-family:Arial;-inkscape-font-specification:'Arial, Normal';font-variant-ligatures:normal;font-variant-caps:normal;font-variant-numeric:normal;font-feature-settings:normal;text-align:center;writing-mode:lr-tb;text-anchor:middle"
           id="path2545"
           inkscape:connector-curvature="0" />
        <path
           d="m 290.85595,423.91016 v -2.35504 q -1.87196,2.71735 -5.08749,2.71735 -1.41906,0 -2.65697,-0.54347 -1.2228,-0.54347 -1.82666,-1.35868 -0.58876,-0.8303 -0.8303,-2.02291 -0.16606,-0.80011 -0.16606,-2.5362 v -9.93343 h 2.71735 v 8.89178 q 0,2.12859 0.16606,2.86832 0.25664,1.07184 1.08694,1.69079 0.8303,0.60386 2.05311,0.60386 1.22281,0 2.29465,-0.61895 1.07185,-0.63405 1.50964,-1.7059 0.45289,-1.08694 0.45289,-3.14005 v -8.58985 h 2.71736 v 16.03238 z"
           style="font-style:normal;font-variant:normal;font-weight:normal;font-stretch:normal;font-size:30.91742325px;font-family:Arial;-inkscape-font-specification:'Arial, Normal';font-variant-ligatures:normal;font-variant-caps:normal;font-variant-numeric:normal;font-feature-settings:normal;text-align:center;writing-mode:lr-tb;text-anchor:middle"
           id="path2547"
           inkscape:connector-curvature="0" />
        <path
           d="m 296.45671,419.1246 2.68716,-0.4227 q 0.22645,1.61531 1.253,2.47581 1.04166,0.86049 2.89851,0.86049 1.87196,0 2.77774,-0.75482 0.90578,-0.76991 0.90578,-1.79647 0,-0.92088 -0.80011,-1.44925 -0.55856,-0.36232 -2.77773,-0.92088 -2.98909,-0.75482 -4.15151,-1.29829 -1.14733,-0.55857 -1.75118,-1.52474 -0.58876,-0.98127 -0.58876,-2.15878 0,-1.07185 0.48308,-1.97763 0.49818,-0.92088 1.34358,-1.52474 0.63405,-0.46799 1.72099,-0.78501 1.10204,-0.33212 2.35504,-0.33212 1.88705,0 3.30611,0.54347 1.43416,0.54347 2.11349,1.47945 0.67934,0.92088 0.93598,2.4758 l -2.65696,0.36232 q -0.18116,-1.23791 -1.05675,-1.93234 -0.8605,-0.69444 -2.44562,-0.69444 -1.87195,0 -2.67206,0.61896 -0.80011,0.61895 -0.80011,1.44925 0,0.52838 0.33212,0.95107 0.33212,0.4378 1.04165,0.72463 0.4076,0.15097 2.40033,0.69444 2.88341,0.76991 4.01564,1.26809 1.14733,0.48309 1.79647,1.41906 0.64915,0.93598 0.64915,2.32485 0,1.35868 -0.80011,2.56639 -0.78501,1.19261 -2.27956,1.85685 -1.49454,0.64915 -3.38159,0.64915 -3.12496,0 -4.77046,-1.29829 -1.63041,-1.29829 -2.08331,-3.84958 z"
           style="font-style:normal;font-variant:normal;font-weight:normal;font-stretch:normal;font-size:30.91742325px;font-family:Arial;-inkscape-font-specification:'Arial, Normal';font-variant-ligatures:normal;font-variant-caps:normal;font-variant-numeric:normal;font-feature-settings:normal;text-align:center;writing-mode:lr-tb;text-anchor:middle"
           id="path2549"
           inkscape:connector-curvature="0" />
        <path
           d="m 323.97745,418.74719 2.80793,0.34722 q -0.66425,2.46071 -2.46072,3.81938 -1.79647,1.35868 -4.5893,1.35868 -3.51746,0 -5.58567,-2.15879 -2.05311,-2.17388 -2.05311,-6.08384 0,-4.04584 2.0833,-6.28011 2.08331,-2.23426 5.40451,-2.23426 3.21554,0 5.25355,2.18898 2.03801,2.18897 2.03801,6.15933 0,0.24154 -0.0151,0.72462 H 314.9045 q 0.15096,2.64187 1.49454,4.04584 1.34358,1.40396 3.3514,1.40396 1.49455,0 2.5513,-0.78501 1.05674,-0.78501 1.6757,-2.506 z m -8.92198,-4.39305 h 8.95217 q -0.18116,-2.02292 -1.02656,-3.03438 -1.29829,-1.57003 -3.36649,-1.57003 -1.87196,0 -3.15515,1.25301 -1.2681,1.253 -1.40397,3.3514 z"
           style="font-style:normal;font-variant:normal;font-weight:normal;font-stretch:normal;font-size:30.91742325px;font-family:Arial;-inkscape-font-specification:'Arial, Normal';font-variant-ligatures:normal;font-variant-caps:normal;font-variant-numeric:normal;font-feature-settings:normal;text-align:center;writing-mode:lr-tb;text-anchor:middle"
           id="path2551"
           inkscape:connector-curvature="0" />
        <path
           d="m 239.27155,473.91016 -6.09894,-16.03238 h 2.86832 l 3.44197,9.60131 q 0.55857,1.55493 1.02656,3.23063 0.36231,-1.2681 1.01146,-3.04947 l 3.56275,-9.78247 h 2.79283 l -6.06875,16.03238 z"
           style="font-style:normal;font-variant:normal;font-weight:normal;font-stretch:normal;font-size:30.91742325px;font-family:Arial;-inkscape-font-specification:'Arial, Normal';font-variant-ligatures:normal;font-variant-caps:normal;font-variant-numeric:normal;font-feature-settings:normal;text-align:center;writing-mode:lr-tb;text-anchor:middle"
           id="path2553"
           inkscape:connector-curvature="0" />
        <path
           d="m 250.15606,480.08458 -0.30193,-2.55129 q 0.89069,0.24154 1.55493,0.24154 0.90578,0 1.44925,-0.30192 0.54347,-0.30193 0.89069,-0.8454 0.25664,-0.4076 0.8303,-2.02292 0.0755,-0.22645 0.24154,-0.66424 L 248.737,457.87778 h 2.9287 l 3.3363,9.28429 q 0.64915,1.76627 1.16242,3.71371 0.46799,-1.87195 1.11714,-3.65333 l 3.42688,-9.34467 h 2.71735 l -6.09894,16.30411 q -0.98127,2.64187 -1.52474,3.63823 -0.72463,1.34358 -1.6606,1.96254 -0.93598,0.63404 -2.23427,0.63404 -0.78501,0 -1.75118,-0.33212 z m 4.42324,-24.19952 2.00782,-4.22699 h 3.56275 l -3.3212,4.22699 z"
           style="font-style:normal;font-variant:normal;font-weight:normal;font-stretch:normal;font-size:30.91742325px;font-family:Arial;-inkscape-font-specification:'Arial, Normal';font-variant-ligatures:normal;font-variant-caps:normal;font-variant-numeric:normal;font-feature-settings:normal;text-align:center;writing-mode:lr-tb;text-anchor:middle"
           id="path2555"
           inkscape:connector-curvature="0" />
        <path
           d="m 270.18898,473.91016 -6.09895,-16.03238 h 2.86832 l 3.44198,9.60131 q 0.55856,1.55493 1.02655,3.23063 0.36232,-1.2681 1.01146,-3.04947 l 3.56275,-9.78247 h 2.79283 l -6.06875,16.03238 z"
           style="font-style:normal;font-variant:normal;font-weight:normal;font-stretch:normal;font-size:30.91742325px;font-family:Arial;-inkscape-font-specification:'Arial, Normal';font-variant-ligatures:normal;font-variant-caps:normal;font-variant-numeric:normal;font-feature-settings:normal;text-align:center;writing-mode:lr-tb;text-anchor:middle"
           id="path2557"
           inkscape:connector-curvature="0" />
        <path
           d="m 280.1828,465.89397 q 0,-4.45344 2.4758,-6.59713 2.06821,-1.78137 5.0422,-1.78137 3.30611,0 5.40451,2.17388 2.0984,2.15878 2.0984,5.97817 0,3.09476 -0.93598,4.87614 -0.92088,1.76628 -2.70225,2.74754 -1.76628,0.98127 -3.86468,0.98127 -3.3665,0 -5.4498,-2.15879 -2.0682,-2.15878 -2.0682,-6.21971 z m 2.79283,0 q 0,3.07966 1.34358,4.6195 1.34358,1.52473 3.38159,1.52473 2.02292,0 3.3665,-1.53983 1.34358,-1.53983 1.34358,-4.69498 0,-2.97399 -1.35868,-4.49873 -1.34358,-1.53983 -3.3514,-1.53983 -2.03801,0 -3.38159,1.52474 -1.34358,1.52473 -1.34358,4.6044 z"
           style="font-style:normal;font-variant:normal;font-weight:normal;font-stretch:normal;font-size:30.91742325px;font-family:Arial;-inkscape-font-specification:'Arial, Normal';font-variant-ligatures:normal;font-variant-caps:normal;font-variant-numeric:normal;font-feature-settings:normal;text-align:center;writing-mode:lr-tb;text-anchor:middle"
           id="path2559"
           inkscape:connector-curvature="0" />
        <path
           d="m 298.37395,454.93398 v -3.15514 h 2.71735 v 3.15514 z m -3.44198,25.19589 0.51328,-2.30975 q 0.81521,0.21135 1.28319,0.21135 0.83031,0 1.23791,-0.55856 0.4076,-0.54347 0.4076,-2.74755 v -16.84758 h 2.71735 v 16.90797 q 0,2.95889 -0.76991,4.12131 -0.98127,1.50964 -3.26083,1.50964 -1.10203,0 -2.12859,-0.28683 z"
           style="font-style:normal;font-variant:normal;font-weight:normal;font-stretch:normal;font-size:30.91742325px;font-family:Arial;-inkscape-font-specification:'Arial, Normal';font-variant-ligatures:normal;font-variant-caps:normal;font-variant-numeric:normal;font-feature-settings:normal;text-align:center;writing-mode:lr-tb;text-anchor:middle"
           id="path2561"
           inkscape:connector-curvature="0" />
      </g>
      <g
         aria-label="Provázané 
aplikace"
         transform="matrix(0.18256517,0,0,0.18256517,125.28075,57.589174)"
         style="font-style:normal;font-variant:normal;font-weight:normal;font-stretch:normal;font-size:39.99941635px;line-height:1.25;font-family:sans-serif;-inkscape-font-specification:'sans-serif, Normal';font-variant-ligatures:normal;font-variant-caps:normal;font-variant-numeric:normal;font-feature-settings:normal;text-align:center;letter-spacing:0px;word-spacing:0px;writing-mode:lr-tb;text-anchor:middle;fill:#000000;fill-opacity:1;stroke:none"
         id="flowRoot8191-2">
        <path
           d="m 196.48081,423.90964 v -22.13132 h 8.34831 q 2.20408,0 3.3665,0.21135 1.63041,0.27174 2.73245,1.04165 1.10203,0.75482 1.76628,2.12859 0.67933,1.37378 0.67933,3.01928 0,2.82303 -1.79647,4.78556 -1.79647,1.94744 -6.49145,1.94744 h -5.67624 v 8.99745 z m 2.92871,-11.60913 h 5.72153 q 2.83812,0 4.03074,-1.05675 1.19261,-1.05675 1.19261,-2.97399 0,-1.38887 -0.70953,-2.37013 -0.69443,-0.99637 -1.84176,-1.31339 -0.73972,-0.19625 -2.73245,-0.19625 h -5.66114 z"
           style="font-style:normal;font-variant:normal;font-weight:normal;font-stretch:normal;font-size:30.91742325px;font-family:Arial;-inkscape-font-specification:'Arial, Normal';font-variant-ligatures:normal;font-variant-caps:normal;font-variant-numeric:normal;font-feature-settings:normal;text-align:center;writing-mode:lr-tb;text-anchor:middle"
           id="path2564"
           inkscape:connector-curvature="0" />
        <path
           d="m 216.72508,423.90964 v -16.03237 h 2.44562 v 2.43052 q 0.93598,-1.7059 1.72099,-2.24937 0.80011,-0.54347 1.75118,-0.54347 1.37377,0 2.79284,0.87559 l -0.93598,2.5211 q -0.99636,-0.58876 -1.99273,-0.58876 -0.89068,0 -1.60021,0.54347 -0.70953,0.52838 -1.01146,1.47945 -0.45289,1.44925 -0.45289,3.17024 v 8.3936 z"
           style="font-style:normal;font-variant:normal;font-weight:normal;font-stretch:normal;font-size:30.91742325px;font-family:Arial;-inkscape-font-specification:'Arial, Normal';font-variant-ligatures:normal;font-variant-caps:normal;font-variant-numeric:normal;font-feature-settings:normal;text-align:center;writing-mode:lr-tb;text-anchor:middle"
           id="path2566"
           inkscape:connector-curvature="0" />
        <path
           d="m 226.03956,415.89345 q 0,-4.45343 2.47581,-6.59712 2.06821,-1.78138 5.0422,-1.78138 3.30611,0 5.40451,2.17388 2.0984,2.15879 2.0984,5.97818 0,3.09476 -0.93598,4.87613 -0.92088,1.76628 -2.70225,2.74755 -1.76628,0.98126 -3.86468,0.98126 -3.3665,0 -5.4498,-2.15878 -2.06821,-2.15879 -2.06821,-6.21972 z m 2.79284,0 q 0,3.07967 1.34357,4.6195 1.34358,1.52474 3.3816,1.52474 2.02292,0 3.36649,-1.53984 1.34358,-1.53983 1.34358,-4.69498 0,-2.97399 -1.35867,-4.49872 -1.34358,-1.53984 -3.3514,-1.53984 -2.03802,0 -3.3816,1.52474 -1.34357,1.52474 -1.34357,4.6044 z"
           style="font-style:normal;font-variant:normal;font-weight:normal;font-stretch:normal;font-size:30.91742325px;font-family:Arial;-inkscape-font-specification:'Arial, Normal';font-variant-ligatures:normal;font-variant-caps:normal;font-variant-numeric:normal;font-feature-settings:normal;text-align:center;writing-mode:lr-tb;text-anchor:middle"
           id="path2568"
           inkscape:connector-curvature="0" />
        <path
           d="m 248.69926,423.90964 -6.09895,-16.03237 h 2.86832 l 3.44197,9.6013 q 0.55857,1.55493 1.02656,3.23063 0.36231,-1.26809 1.01146,-3.04947 l 3.56275,-9.78246 h 2.79283 l -6.06875,16.03237 z"
           style="font-style:normal;font-variant:normal;font-weight:normal;font-stretch:normal;font-size:30.91742325px;font-family:Arial;-inkscape-font-specification:'Arial, Normal';font-variant-ligatures:normal;font-variant-caps:normal;font-variant-numeric:normal;font-feature-settings:normal;text-align:center;writing-mode:lr-tb;text-anchor:middle"
           id="path2570"
           inkscape:connector-curvature="0" />
        <path
           d="m 270.16633,421.93201 q -1.50964,1.2832 -2.9136,1.81157 -1.38887,0.52837 -2.98909,0.52837 -2.64187,0 -4.06093,-1.28319 -1.41906,-1.29829 -1.41906,-3.30611 0,-1.17752 0.52837,-2.14369 0.54347,-0.98127 1.40397,-1.57003 0.87559,-0.58876 1.96253,-0.89068 0.80011,-0.21135 2.41542,-0.40761 3.29102,-0.3925 4.84595,-0.93597 0.0151,-0.55857 0.0151,-0.70953 0,-1.66061 -0.76991,-2.33994 -1.04166,-0.92089 -3.09477,-0.92089 -1.91724,0 -2.83812,0.67934 -0.90578,0.66424 -1.34358,2.37014 l -2.65696,-0.36232 q 0.36231,-1.70589 1.19261,-2.74754 0.8303,-1.05675 2.40033,-1.61532 1.57002,-0.57366 3.63823,-0.57366 2.05311,0 3.3363,0.48309 1.2832,0.48308 1.88705,1.2228 0.60386,0.72463 0.8454,1.84177 0.13587,0.69443 0.13587,2.506 v 3.62313 q 0,3.7892 0.16606,4.80066 0.18116,0.99636 0.69443,1.91724 h -2.83812 q -0.4227,-0.8454 -0.54347,-1.97763 z m -0.22644,-6.06875 q -1.47945,0.60386 -4.43835,1.02655 -1.6757,0.24155 -2.37013,0.54348 -0.69443,0.30192 -1.07184,0.89068 -0.37741,0.57367 -0.37741,1.2832 0,1.08694 0.8152,1.81156 0.8303,0.72463 2.41542,0.72463 1.57003,0 2.79284,-0.67934 1.22281,-0.69443 1.79647,-1.88705 0.4378,-0.92088 0.4378,-2.71735 z m -5.28374,-9.97872 2.00782,-4.22699 h 3.56275 l -3.32121,4.22699 z"
           style="font-style:normal;font-variant:normal;font-weight:normal;font-stretch:normal;font-size:30.91742325px;font-family:Arial;-inkscape-font-specification:'Arial, Normal';font-variant-ligatures:normal;font-variant-caps:normal;font-variant-numeric:normal;font-feature-settings:normal;text-align:center;writing-mode:lr-tb;text-anchor:middle"
           id="path2572"
           inkscape:connector-curvature="0" />
        <path
           d="m 275.46517,423.90964 v -2.20407 l 10.20517,-11.71481 q -1.73609,0.0906 -3.06457,0.0906 h -6.53674 v -2.20407 h 13.10367 v 1.79647 l -8.68043,10.17497 -1.6757,1.85686 q 1.82667,-0.13587 3.42688,-0.13587 h 7.41234 v 2.33994 z"
           style="font-style:normal;font-variant:normal;font-weight:normal;font-stretch:normal;font-size:30.91742325px;font-family:Arial;-inkscape-font-specification:'Arial, Normal';font-variant-ligatures:normal;font-variant-caps:normal;font-variant-numeric:normal;font-feature-settings:normal;text-align:center;writing-mode:lr-tb;text-anchor:middle"
           id="path2574"
           inkscape:connector-curvature="0" />
        <path
           d="m 302.81984,421.93201 q -1.50964,1.2832 -2.9136,1.81157 -1.38887,0.52837 -2.98909,0.52837 -2.64187,0 -4.06093,-1.28319 -1.41906,-1.29829 -1.41906,-3.30611 0,-1.17752 0.52837,-2.14369 0.54347,-0.98127 1.40397,-1.57003 0.87559,-0.58876 1.96253,-0.89068 0.80011,-0.21135 2.41542,-0.40761 3.29102,-0.3925 4.84595,-0.93597 0.0151,-0.55857 0.0151,-0.70953 0,-1.66061 -0.76991,-2.33994 -1.04165,-0.92089 -3.09477,-0.92089 -1.91724,0 -2.83812,0.67934 -0.90578,0.66424 -1.34358,2.37014 l -2.65696,-0.36232 q 0.36231,-1.70589 1.19261,-2.74754 0.8303,-1.05675 2.40033,-1.61532 1.57002,-0.57366 3.63823,-0.57366 2.05311,0 3.33631,0.48309 1.28319,0.48308 1.88704,1.2228 0.60386,0.72463 0.8454,1.84177 0.13587,0.69443 0.13587,2.506 v 3.62313 q 0,3.7892 0.16606,4.80066 0.18116,0.99636 0.69444,1.91724 h -2.83813 q -0.4227,-0.8454 -0.54347,-1.97763 z m -0.22644,-6.06875 q -1.47945,0.60386 -4.43834,1.02655 -1.6757,0.24155 -2.37014,0.54348 -0.69443,0.30192 -1.07184,0.89068 -0.37741,0.57367 -0.37741,1.2832 0,1.08694 0.8152,1.81156 0.8303,0.72463 2.41543,0.72463 1.57002,0 2.79283,-0.67934 1.22281,-0.69443 1.79647,-1.88705 0.4378,-0.92088 0.4378,-2.71735 z"
           style="font-style:normal;font-variant:normal;font-weight:normal;font-stretch:normal;font-size:30.91742325px;font-family:Arial;-inkscape-font-specification:'Arial, Normal';font-variant-ligatures:normal;font-variant-caps:normal;font-variant-numeric:normal;font-feature-settings:normal;text-align:center;writing-mode:lr-tb;text-anchor:middle"
           id="path2576"
           inkscape:connector-curvature="0" />
        <path
           d="m 309.55283,423.90964 v -16.03237 h 2.44562 v 2.27955 q 1.76628,-2.64187 5.10258,-2.64187 1.44926,0 2.65697,0.52838 1.22281,0.51327 1.82666,1.35867 0.60386,0.8454 0.8454,2.00782 0.15096,0.75482 0.15096,2.64187 v 9.85795 h -2.71735 v -9.75227 q 0,-1.66061 -0.31702,-2.47581 -0.31703,-0.8303 -1.13223,-1.31339 -0.80011,-0.49818 -1.88705,-0.49818 -1.73609,0 -3.00419,1.10204 -1.253,1.10203 -1.253,4.1817 v 8.75591 z"
           style="font-style:normal;font-variant:normal;font-weight:normal;font-stretch:normal;font-size:30.91742325px;font-family:Arial;-inkscape-font-specification:'Arial, Normal';font-variant-ligatures:normal;font-variant-caps:normal;font-variant-numeric:normal;font-feature-settings:normal;text-align:center;writing-mode:lr-tb;text-anchor:middle"
           id="path2578"
           inkscape:connector-curvature="0" />
        <path
           d="m 337.72272,418.74667 2.80793,0.34722 q -0.66424,2.46071 -2.46071,3.81939 -1.79647,1.35867 -4.58931,1.35867 -3.51746,0 -5.58566,-2.15878 -2.05311,-2.17388 -2.05311,-6.08385 0,-4.04583 2.0833,-6.2801 2.0833,-2.23427 5.40451,-2.23427 3.21553,0 5.25355,2.18898 2.03801,2.18898 2.03801,6.15933 0,0.24154 -0.0151,0.72463 h -11.95634 q 0.15096,2.64187 1.49454,4.04583 1.34358,1.40397 3.3514,1.40397 1.49454,0 2.55129,-0.78502 1.05675,-0.78501 1.6757,-2.506 z m -8.92197,-4.39305 h 8.95217 q -0.18116,-2.02292 -1.02656,-3.03438 -1.29829,-1.57002 -3.3665,-1.57002 -1.87195,0 -3.15514,1.253 -1.2681,1.253 -1.40397,3.3514 z m 2.9287,-8.46908 2.00782,-4.22699 h 3.56275 l -3.3212,4.22699 z"
           style="font-style:normal;font-variant:normal;font-weight:normal;font-stretch:normal;font-size:30.91742325px;font-family:Arial;-inkscape-font-specification:'Arial, Normal';font-variant-ligatures:normal;font-variant-caps:normal;font-variant-numeric:normal;font-feature-settings:normal;text-align:center;writing-mode:lr-tb;text-anchor:middle"
           id="path2580"
           inkscape:connector-curvature="0" />
        <path
           d="m 223.78265,471.93128 q -1.50964,1.28319 -2.9136,1.81157 -1.38887,0.52837 -2.98909,0.52837 -2.64187,0 -4.06093,-1.28319 -1.41906,-1.29829 -1.41906,-3.30611 0,-1.17752 0.52837,-2.14369 0.54347,-0.98127 1.40396,-1.57003 0.8756,-0.58876 1.96254,-0.89069 0.80011,-0.21135 2.41542,-0.4076 3.29102,-0.3925 4.84594,-0.93597 0.0151,-0.55857 0.0151,-0.70954 0,-1.6606 -0.76992,-2.33994 -1.04165,-0.92088 -3.09476,-0.92088 -1.91724,0 -2.83812,0.67934 -0.90578,0.66424 -1.34358,2.37013 l -2.65697,-0.36231 q 0.36232,-1.70589 1.19262,-2.74754 0.8303,-1.05675 2.40033,-1.61532 1.57002,-0.57366 3.63823,-0.57366 2.05311,0 3.3363,0.48308 1.2832,0.48309 1.88705,1.22281 0.60386,0.72463 0.8454,1.84176 0.13587,0.69444 0.13587,2.506 v 3.62314 q 0,3.7892 0.16606,4.80065 0.18116,0.99637 0.69443,1.91725 h -2.83812 q -0.4227,-0.8454 -0.54347,-1.97763 z m -0.22645,-6.06875 q -1.47944,0.60385 -4.43834,1.02655 -1.6757,0.24154 -2.37013,0.54347 -0.69444,0.30193 -1.07185,0.89069 -0.37741,0.57366 -0.37741,1.28319 0,1.08694 0.81521,1.81157 0.8303,0.72463 2.41542,0.72463 1.57003,0 2.79284,-0.67934 1.22281,-0.69443 1.79647,-1.88705 0.43779,-0.92088 0.43779,-2.71735 z"
           style="font-style:normal;font-variant:normal;font-weight:normal;font-stretch:normal;font-size:30.91742325px;font-family:Arial;-inkscape-font-specification:'Arial, Normal';font-variant-ligatures:normal;font-variant-caps:normal;font-variant-numeric:normal;font-feature-settings:normal;text-align:center;writing-mode:lr-tb;text-anchor:middle"
           id="path2582"
           inkscape:connector-curvature="0" />
        <path
           d="m 230.51564,480.05314 v -22.17661 h 2.47581 v 2.08331 q 0.87559,-1.22281 1.97763,-1.82667 1.10204,-0.61895 2.67206,-0.61895 2.05311,0 3.62314,1.05675 1.57002,1.05674 2.37013,2.98908 0.80011,1.91725 0.80011,4.2119 0,2.46071 -0.89068,4.43834 -0.8756,1.96253 -2.56639,3.01928 -1.6757,1.04165 -3.53256,1.04165 -1.35868,0 -2.44562,-0.57366 -1.07184,-0.57367 -1.76627,-1.44926 v 7.80484 z m 2.46072,-14.06984 q 0,3.09476 1.253,4.57421 1.253,1.47944 3.03437,1.47944 1.81157,0 3.09477,-1.52473 1.29829,-1.53983 1.29829,-4.75537 0,-3.06457 -1.2681,-4.5893 -1.253,-1.52474 -3.00419,-1.52474 -1.73608,0 -3.07966,1.63041 -1.32848,1.61532 -1.32848,4.71008 z"
           style="font-style:normal;font-variant:normal;font-weight:normal;font-stretch:normal;font-size:30.91742325px;font-family:Arial;-inkscape-font-specification:'Arial, Normal';font-variant-ligatures:normal;font-variant-caps:normal;font-variant-numeric:normal;font-feature-settings:normal;text-align:center;writing-mode:lr-tb;text-anchor:middle"
           id="path2584"
           inkscape:connector-curvature="0" />
        <path
           d="m 247.65006,473.90891 v -22.13132 h 2.71735 v 22.13132 z"
           style="font-style:normal;font-variant:normal;font-weight:normal;font-stretch:normal;font-size:30.91742325px;font-family:Arial;-inkscape-font-specification:'Arial, Normal';font-variant-ligatures:normal;font-variant-caps:normal;font-variant-numeric:normal;font-feature-settings:normal;text-align:center;writing-mode:lr-tb;text-anchor:middle"
           id="path2586"
           inkscape:connector-curvature="0" />
        <path
           d="m 254.5944,454.90254 v -3.12495 h 2.71735 v 3.12495 z m 0,19.00637 v -16.03238 h 2.71735 v 16.03238 z"
           style="font-style:normal;font-variant:normal;font-weight:normal;font-stretch:normal;font-size:30.91742325px;font-family:Arial;-inkscape-font-specification:'Arial, Normal';font-variant-ligatures:normal;font-variant-caps:normal;font-variant-numeric:normal;font-feature-settings:normal;text-align:center;writing-mode:lr-tb;text-anchor:middle"
           id="path2588"
           inkscape:connector-curvature="0" />
        <path
           d="m 261.46326,473.90891 v -22.13132 h 2.71735 v 12.62059 l 6.43107,-6.52165 h 3.51746 L 268,463.82451 l 6.74809,10.0844 h -3.3514 l -5.29883,-8.19735 -1.91725,1.84176 v 6.35559 z"
           style="font-style:normal;font-variant:normal;font-weight:normal;font-stretch:normal;font-size:30.91742325px;font-family:Arial;-inkscape-font-specification:'Arial, Normal';font-variant-ligatures:normal;font-variant-caps:normal;font-variant-numeric:normal;font-feature-settings:normal;text-align:center;writing-mode:lr-tb;text-anchor:middle"
           id="path2590"
           inkscape:connector-curvature="0" />
        <path
           d="m 287.36868,471.93128 q -1.50964,1.28319 -2.91361,1.81157 -1.38886,0.52837 -2.98908,0.52837 -2.64187,0 -4.06093,-1.28319 -1.41907,-1.29829 -1.41907,-3.30611 0,-1.17752 0.52838,-2.14369 0.54347,-0.98127 1.40396,-1.57003 0.8756,-0.58876 1.96254,-0.89069 0.8001,-0.21135 2.41542,-0.4076 3.29101,-0.3925 4.84594,-0.93597 0.0151,-0.55857 0.0151,-0.70954 0,-1.6606 -0.76992,-2.33994 -1.04165,-0.92088 -3.09476,-0.92088 -1.91724,0 -2.83812,0.67934 -0.90579,0.66424 -1.34358,2.37013 l -2.65697,-0.36231 q 0.36232,-1.70589 1.19262,-2.74754 0.8303,-1.05675 2.40033,-1.61532 1.57002,-0.57366 3.63823,-0.57366 2.05311,0 3.3363,0.48308 1.2832,0.48309 1.88705,1.22281 0.60386,0.72463 0.8454,1.84176 0.13587,0.69444 0.13587,2.506 v 3.62314 q 0,3.7892 0.16606,4.80065 0.18115,0.99637 0.69443,1.91725 h -2.83812 q -0.4227,-0.8454 -0.54347,-1.97763 z m -0.22645,-6.06875 q -1.47944,0.60385 -4.43834,1.02655 -1.6757,0.24154 -2.37013,0.54347 -0.69444,0.30193 -1.07185,0.89069 -0.37741,0.57366 -0.37741,1.28319 0,1.08694 0.81521,1.81157 0.8303,0.72463 2.41542,0.72463 1.57003,0 2.79284,-0.67934 1.2228,-0.69443 1.79647,-1.88705 0.43779,-0.92088 0.43779,-2.71735 z"
           style="font-style:normal;font-variant:normal;font-weight:normal;font-stretch:normal;font-size:30.91742325px;font-family:Arial;-inkscape-font-specification:'Arial, Normal';font-variant-ligatures:normal;font-variant-caps:normal;font-variant-numeric:normal;font-feature-settings:normal;text-align:center;writing-mode:lr-tb;text-anchor:middle"
           id="path2592"
           inkscape:connector-curvature="0" />
        <path
           d="m 304.56347,468.03641 2.67207,0.34722 q -0.4378,2.76264 -2.24937,4.33266 -1.79647,1.55493 -4.42324,1.55493 -3.29102,0 -5.29884,-2.14369 -1.99272,-2.15878 -1.99272,-6.17442 0,-2.59658 0.86049,-4.54402 0.8605,-1.94744 2.61168,-2.9136 1.76628,-0.98127 3.83448,-0.98127 2.61168,0 4.27228,1.32848 1.66061,1.31339 2.1286,3.74391 l -2.64187,0.4076 q -0.37741,-1.61531 -1.34358,-2.43052 -0.95108,-0.8152 -2.30975,-0.8152 -2.05311,0 -3.33631,1.47944 -1.28319,1.46435 -1.28319,4.64969 0,3.23063 1.23791,4.69498 1.2379,1.46435 3.23062,1.46435 1.60022,0 2.67207,-0.98126 1.07184,-0.98127 1.35867,-3.01928 z"
           style="font-style:normal;font-variant:normal;font-weight:normal;font-stretch:normal;font-size:30.91742325px;font-family:Arial;-inkscape-font-specification:'Arial, Normal';font-variant-ligatures:normal;font-variant-caps:normal;font-variant-numeric:normal;font-feature-settings:normal;text-align:center;writing-mode:lr-tb;text-anchor:middle"
           id="path2594"
           inkscape:connector-curvature="0" />
        <path
           d="m 320.53547,468.74594 2.80793,0.34722 q -0.66424,2.46071 -2.46072,3.81939 -1.79647,1.35867 -4.5893,1.35867 -3.51746,0 -5.58567,-2.15878 -2.05311,-2.17389 -2.05311,-6.08385 0,-4.04584 2.08331,-6.2801 2.0833,-2.23427 5.40451,-2.23427 3.21553,0 5.25354,2.18898 2.03802,2.18897 2.03802,6.15933 0,0.24154 -0.0151,0.72462 h -11.95635 q 0.15097,2.64187 1.49455,4.04584 1.34358,1.40396 3.3514,1.40396 1.49454,0 2.55129,-0.78501 1.05675,-0.78501 1.6757,-2.506 z m -8.92197,-4.39305 h 8.95216 q -0.18116,-2.02292 -1.02655,-3.03438 -1.29829,-1.57002 -3.3665,-1.57002 -1.87195,0 -3.15515,1.253 -1.2681,1.253 -1.40396,3.3514 z"
           style="font-style:normal;font-variant:normal;font-weight:normal;font-stretch:normal;font-size:30.91742325px;font-family:Arial;-inkscape-font-specification:'Arial, Normal';font-variant-ligatures:normal;font-variant-caps:normal;font-variant-numeric:normal;font-feature-settings:normal;text-align:center;writing-mode:lr-tb;text-anchor:middle"
           id="path2596"
           inkscape:connector-curvature="0" />
      </g>
      <g
         aria-label="Openshift"
         transform="matrix(0.18256517,0,0,0.18256517,70.267961,57.489821)"
         style="font-style:normal;font-weight:normal;font-size:40px;line-height:1.25;font-family:sans-serif;letter-spacing:0px;word-spacing:0px;fill:#000000;fill-opacity:1;stroke:none"
         id="flowRoot8191-2-7">
        <path
           d="m 79.494543,413.13133 q 0,-5.51019 2.958894,-8.62005 2.958894,-3.12495 7.638778,-3.12495 3.064569,0 5.525282,1.46435 2.460712,1.46435 3.743906,4.09112 1.298287,2.61168 1.298287,5.93289 0,3.3665 -1.358672,6.02346 -1.358676,2.65697 -3.849582,4.03074 -2.490906,1.35868 -5.374318,1.35868 -3.124954,0 -5.585667,-1.50964 -2.460713,-1.50964 -3.72881,-4.12132 -1.268098,-2.61168 -1.268098,-5.52528 z m 3.01928,0.0453 q 0,4.00054 2.143689,6.31029 2.158784,2.29465 5.40451,2.29465 3.306111,0 5.434703,-2.32484 2.143689,-2.32485 2.143689,-6.59713 0,-2.70225 -0.92088,-4.71007 -0.905784,-2.02292 -2.672063,-3.12496 -1.751182,-1.11713 -3.94016,-1.11713 -3.109858,0 -5.359221,2.14369 -2.234267,2.12859 -2.234267,7.1255 z"
           style="font-style:normal;font-variant:normal;font-weight:normal;font-stretch:normal;font-size:30.91742325px;font-family:Arial;-inkscape-font-specification:'Arial, Normal';font-variant-ligatures:normal;font-variant-caps:normal;font-variant-numeric:normal;font-feature-settings:normal;text-align:start;writing-mode:lr-tb;text-anchor:start"
           id="path2599"
           inkscape:connector-curvature="0" />
        <path
           d="m 104.08658,430.05439 v -22.17661 h 2.47581 v 2.0833 q 0.87559,-1.2228 1.97762,-1.82666 1.10204,-0.61895 2.67207,-0.61895 2.05311,0 3.62313,1.05675 1.57003,1.05674 2.37014,2.98908 0.80011,1.91725 0.80011,4.2119 0,2.46071 -0.89069,4.43834 -0.87559,1.96253 -2.56639,3.01928 -1.6757,1.04165 -3.53256,1.04165 -1.35867,0 -2.44561,-0.57366 -1.07185,-0.57367 -1.76628,-1.44926 v 7.80484 z m 2.46071,-14.06984 q 0,3.09476 1.253,4.57421 1.253,1.47944 3.03438,1.47944 1.81156,0 3.09476,-1.52473 1.29829,-1.53984 1.29829,-4.75537 0,-3.06457 -1.2681,-4.5893 -1.253,-1.52474 -3.00418,-1.52474 -1.73609,0 -3.07967,1.63041 -1.32848,1.61532 -1.32848,4.71008 z"
           style="font-style:normal;font-variant:normal;font-weight:normal;font-stretch:normal;font-size:30.91742325px;font-family:Arial;-inkscape-font-specification:'Arial, Normal';font-variant-ligatures:normal;font-variant-caps:normal;font-variant-numeric:normal;font-feature-settings:normal;text-align:start;writing-mode:lr-tb;text-anchor:start"
           id="path2601"
           inkscape:connector-curvature="0" />
        <path
           d="m 132.25646,418.74719 2.80793,0.34722 q -0.66424,2.46071 -2.46072,3.81938 -1.79647,1.35868 -4.5893,1.35868 -3.51746,0 -5.58567,-2.15879 -2.05311,-2.17388 -2.05311,-6.08384 0,-4.04584 2.08331,-6.28011 2.0833,-2.23426 5.40451,-2.23426 3.21553,0 5.25354,2.18898 2.03802,2.18897 2.03802,6.15933 0,0.24154 -0.0151,0.72462 h -11.95635 q 0.15097,2.64187 1.49455,4.04584 1.34358,1.40396 3.3514,1.40396 1.49454,0 2.55129,-0.78501 1.05675,-0.78501 1.6757,-2.506 z m -8.92197,-4.39305 h 8.95216 q -0.18116,-2.02292 -1.02655,-3.03438 -1.29829,-1.57003 -3.3665,-1.57003 -1.87195,0 -3.15515,1.25301 -1.2681,1.253 -1.40396,3.3514 z"
           style="font-style:normal;font-variant:normal;font-weight:normal;font-stretch:normal;font-size:30.91742325px;font-family:Arial;-inkscape-font-specification:'Arial, Normal';font-variant-ligatures:normal;font-variant-caps:normal;font-variant-numeric:normal;font-feature-settings:normal;text-align:start;writing-mode:lr-tb;text-anchor:start"
           id="path2603"
           inkscape:connector-curvature="0" />
        <path
           d="m 138.47617,423.91016 v -16.03238 h 2.44562 v 2.27956 q 1.76627,-2.64187 5.10258,-2.64187 1.44925,0 2.65696,0.52837 1.22281,0.51328 1.82667,1.35868 0.60386,0.8454 0.8454,2.00782 0.15096,0.75482 0.15096,2.64187 v 9.85795 h -2.71735 v -9.75228 q 0,-1.6606 -0.31702,-2.47581 -0.31703,-0.8303 -1.13223,-1.31338 -0.80011,-0.49818 -1.88705,-0.49818 -1.73609,0 -3.00419,1.10203 -1.253,1.10204 -1.253,4.18171 v 8.75591 z"
           style="font-style:normal;font-variant:normal;font-weight:normal;font-stretch:normal;font-size:30.91742325px;font-family:Arial;-inkscape-font-specification:'Arial, Normal';font-variant-ligatures:normal;font-variant-caps:normal;font-variant-numeric:normal;font-feature-settings:normal;text-align:start;writing-mode:lr-tb;text-anchor:start"
           id="path2605"
           inkscape:connector-curvature="0" />
        <path
           d="m 154.58403,419.1246 2.68716,-0.4227 q 0.22645,1.61531 1.253,2.47581 1.04165,0.86049 2.89851,0.86049 1.87195,0 2.77774,-0.75482 0.90578,-0.76991 0.90578,-1.79647 0,-0.92088 -0.80011,-1.44925 -0.55857,-0.36232 -2.77774,-0.92088 -2.98908,-0.75482 -4.15151,-1.29829 -1.14732,-0.55857 -1.75118,-1.52474 -0.58876,-0.98127 -0.58876,-2.15878 0,-1.07185 0.48309,-1.97763 0.49818,-0.92088 1.34358,-1.52474 0.63405,-0.46799 1.72099,-0.78501 1.10203,-0.33212 2.35503,-0.33212 1.88705,0 3.30612,0.54347 1.43415,0.54347 2.11349,1.47945 0.67934,0.92088 0.93598,2.4758 l -2.65697,0.36232 q -0.18116,-1.23791 -1.05675,-1.93234 -0.86049,-0.69444 -2.44561,-0.69444 -1.87196,0 -2.67207,0.61896 -0.8001,0.61895 -0.8001,1.44925 0,0.52838 0.33212,0.95107 0.33212,0.4378 1.04165,0.72463 0.4076,0.15097 2.40033,0.69444 2.88341,0.76991 4.01564,1.26809 1.14732,0.48309 1.79647,1.41906 0.64914,0.93598 0.64914,2.32485 0,1.35868 -0.80011,2.56639 -0.78501,1.19261 -2.27955,1.85685 -1.49454,0.64915 -3.38159,0.64915 -3.12496,0 -4.77047,-1.29829 -1.63041,-1.29829 -2.0833,-3.84958 z"
           style="font-style:normal;font-variant:normal;font-weight:normal;font-stretch:normal;font-size:30.91742325px;font-family:Arial;-inkscape-font-specification:'Arial, Normal';font-variant-ligatures:normal;font-variant-caps:normal;font-variant-numeric:normal;font-feature-settings:normal;text-align:start;writing-mode:lr-tb;text-anchor:start"
           id="path2607"
           inkscape:connector-curvature="0" />
        <path
           d="m 171.12968,423.91016 v -22.13132 h 2.71735 v 7.9407 q 1.90215,-2.20407 4.80066,-2.20407 1.78137,0 3.09476,0.70953 1.31339,0.69443 1.87195,1.93234 0.57367,1.2379 0.57367,3.59294 v 10.15988 h -2.71736 v -10.15988 q 0,-2.03801 -0.89068,-2.95889 -0.87559,-0.93598 -2.49091,-0.93598 -1.20771,0 -2.27956,0.63405 -1.05674,0.61895 -1.50964,1.69079 -0.45289,1.07185 -0.45289,2.9589 v 8.77101 z"
           style="font-style:normal;font-variant:normal;font-weight:normal;font-stretch:normal;font-size:30.91742325px;font-family:Arial;-inkscape-font-specification:'Arial, Normal';font-variant-ligatures:normal;font-variant-caps:normal;font-variant-numeric:normal;font-feature-settings:normal;text-align:start;writing-mode:lr-tb;text-anchor:start"
           id="path2609"
           inkscape:connector-curvature="0" />
        <path
           d="m 188.33958,404.90379 v -3.12495 h 2.71735 v 3.12495 z m 0,19.00637 v -16.03238 h 2.71735 v 16.03238 z"
           style="font-style:normal;font-variant:normal;font-weight:normal;font-stretch:normal;font-size:30.91742325px;font-family:Arial;-inkscape-font-specification:'Arial, Normal';font-variant-ligatures:normal;font-variant-caps:normal;font-variant-numeric:normal;font-feature-settings:normal;text-align:start;writing-mode:lr-tb;text-anchor:start"
           id="path2611"
           inkscape:connector-curvature="0" />
        <path
           d="m 195.84249,423.91016 v -13.91888 h -2.40033 v -2.1135 h 2.40033 v -1.70589 q 0,-1.61532 0.28683,-2.40033 0.3925,-1.05675 1.37377,-1.70589 0.99636,-0.66424 2.77774,-0.66424 1.14732,0 2.53619,0.27173 l -0.4076,2.37014 q -0.8454,-0.15097 -1.60022,-0.15097 -1.2379,0 -1.75118,0.52838 -0.51328,0.52837 -0.51328,1.97762 v 1.47945 h 3.12496 v 2.1135 h -3.12496 v 13.91888 z"
           style="font-style:normal;font-variant:normal;font-weight:normal;font-stretch:normal;font-size:30.91742325px;font-family:Arial;-inkscape-font-specification:'Arial, Normal';font-variant-ligatures:normal;font-variant-caps:normal;font-variant-numeric:normal;font-feature-settings:normal;text-align:start;writing-mode:lr-tb;text-anchor:start"
           id="path2613"
           inkscape:connector-curvature="0" />
        <path
           d="m 209.71608,421.47964 0.3925,2.40032 q -1.14732,0.24155 -2.05311,0.24155 -1.47944,0 -2.29465,-0.46799 -0.81521,-0.46799 -1.14733,-1.22281 -0.33212,-0.76992 -0.33212,-3.21553 v -9.2239 h -1.99272 v -2.1135 h 1.99272 v -3.97035 l 2.70226,-1.63041 v 5.60076 h 2.73245 v 2.1135 h -2.73245 v 9.37486 q 0,1.16242 0.13587,1.49454 0.15096,0.33212 0.46798,0.52838 0.33213,0.19625 0.93598,0.19625 0.45289,0 1.19262,-0.10567 z"
           style="font-style:normal;font-variant:normal;font-weight:normal;font-stretch:normal;font-size:30.91742325px;font-family:Arial;-inkscape-font-specification:'Arial, Normal';font-variant-ligatures:normal;font-variant-caps:normal;font-variant-numeric:normal;font-feature-settings:normal;text-align:start;writing-mode:lr-tb;text-anchor:start"
           id="path2615"
           inkscape:connector-curvature="0" />
      </g>
      <path
         style="fill:#da2430;stroke-width:0.08327977"
         d="m 92.270889,116.51578 -3.40357,1.23837 c 0.0437,0.54565 0.13759,1.08464 0.26983,1.6128 l 3.23276,-1.17733 c -0.10355,-0.54565 -0.14067,-1.10928 -0.0983,-1.67392 m 15.039911,-3.76342 c -0.23736,-0.4896 -0.51192,-0.96279 -0.82997,-1.40876 l -3.40256,1.23837 c 0.396,0.40508 0.72812,0.86029 0.99993,1.34714 l 3.23268,-1.17691 v 1.6e-4 z"
         id="path7830"
         inkscape:connector-curvature="0" />
      <path
         style="fill:#da2430;stroke-width:0.08327977"
         d="m 101.27428,112.73221 c -0.42808,-0.37142 -0.9116,-0.69205 -1.449741,-0.94306 h -2.5e-4 c -3.15956,-1.47305 -6.92963,-0.1026 -8.40267,3.0582 a 6.1607054,6.1607054 0 0 0 -0.22095,0.54024 c -0.18387,0.53491 -0.29131,1.08181 -0.33237,1.62779 l -0.0122,0.005 -7.9e-4,0.0119 -2.04835,0.74535 -1.31798,0.4871 -8e-4,-0.007 -0.0362,0.0132 c -0.12789,-1.61854 0.14491,-3.29055 0.87886,-4.86445 a 9.8230171,9.8230171 0 0 1 0.30705,-0.60345 c 2.41971,-4.50676 7.92532,-6.39055 12.568511,-4.19147 a 9.6033249,9.6033249 0 0 1 2.54478,1.75504 9.7101734,9.7101734 0 0 1 1.31416,1.49404 l -3.40257,1.2387 a 6.636566,6.636566 0 0 0 -0.0529,-0.0534 l -0.0103,0.003 a 6.5466238,6.5466238 0 0 0 -0.32636,-0.31629 z"
         id="path7832"
         inkscape:connector-curvature="0" />
      <path
         style="fill:#e82429;stroke-width:0.08327977"
         d="m 87.642279,123.76137 -0.005,0.002 a 9.8606597,9.8606597 0 0 1 -1.52051,-3.29562 l 3.23333,-1.17757 1.6e-4,2.3e-4 0.003,0.0104 0.021,-0.008 5.3e-4,10e-4 c 0.16607,0.87943 0.51176,1.71847 1.01586,2.45625 a 6.269885,6.269885 0 0 0 0.64307,0.77667 l -0.0135,0.005 0.0245,0.0257 -3.37183,1.24669 c -0.009,-0.0142 -0.02,-0.0286 -0.0299,-0.043 z"
         id="path7834"
         inkscape:connector-curvature="0" />
      <path
         style="fill:#da2430;stroke-width:0.08327977"
         d="m 100.48435,122.89118 c -1.753111,1.08406 -4.001831,1.2935 -6.005541,0.35911 a 6.2575596,6.2575596 0 0 1 -1.84199,-1.30708 l -3.39549,1.2362 0.0261,0.0364 -0.001,6.9e-4 c 0.93356,1.33381 2.20708,2.44876 3.76974,3.18945 3.37034,1.59589 7.194281,1.04108 9.963091,-1.10629 1.23987,-0.92873 2.27495,-2.1666 2.97417,-3.66597 0.73444,-1.57358 1.00569,-3.24492 0.87569,-4.86221 l -0.0945,0.0345 c -7.9e-4,-0.0173 -0.002,-0.0346 -0.003,-0.052 l -3.37198,1.24562 1.7e-4,2.3e-4 a 6.3673223,6.3673223 0 0 1 -0.56682,2.20358 c -0.52591,1.14535 -1.34613,2.05768 -2.32683,2.68769 z"
         id="path7836"
         inkscape:connector-curvature="0" />
      <path
         style="fill:#e82429;stroke-width:0.08327977"
         d="m 104.23919,113.87056 0.0506,-0.0185 v -9e-5 a 9.8046958,9.8046958 0 0 1 0.95387,3.50233 l -3.39557,1.23537 0.001,-0.0253 -0.0642,0.0237 c 0.0925,-1.25652 -0.18945,-2.50614 -0.78573,-3.59127 l 3.21027,-1.18674 1.7e-4,-2.3e-4 c 0.0103,0.0202 0.0192,0.0405 0.0288,0.0608 z"
         id="path7838"
         inkscape:connector-curvature="0" />
      <path
         style="fill:#c22035;stroke-width:0.08327977"
         d="m 92.275059,116.49588 -3.3795,1.24886 c 0.0433,0.55048 0.13657,1.09396 0.26808,1.62662 l 3.21009,-1.1874 c -0.10383,-0.55148 -0.14116,-1.11911 -0.0974,-1.68842 m 14.933821,-3.79481 c -0.23567,-0.49376 -0.5085,-0.97087 -0.82431,-1.42066 l -3.37858,1.24886 c 0.39308,0.40857 0.72286,0.86761 0.99269,1.35871 l 3.20977,-1.18724 5.3e-4,2.3e-4 z"
         id="path7840"
         inkscape:connector-curvature="0" />
      <path
         style="fill:#ac223b;stroke-width:0.08327977"
         d="m 88.895379,117.74499 3.37134,-1.23496 -0.0137,0.67732 -3.25257,1.22829 -0.10543,-0.67148 z m 14.112431,-5.2263 3.42388,-1.17492 0.35586,0.53708 -3.32669,1.17599 -0.45254,-0.53841 z"
         id="path7842"
         inkscape:connector-curvature="0" />
      <path
         style="fill:#b92135;stroke-width:0.08327977"
         d="m 89.266479,123.20382 3.37534,-1.2283 1.02084,0.96313 -3.53964,1.32881 -0.85636,-1.06398 z m 17.540041,-6.44078 -3.42819,1.2362 -0.2525,1.37229 3.65532,-1.30275 0.0259,-1.30557 z"
         id="path7844"
         inkscape:connector-curvature="0" />
      <g
         id="g7945"
         transform="matrix(0.22151964,0,0,0.22151964,2.6803884,107.61692)">
        <path
           class="st0"
           d="m 52.8,74.65 c 3.3,9.72 17.1,10.07 20.2,0 3.65,3.29 14.46,3.94 18.48,6.19 1.27,0.71 2.42,1.61 3.34,2.83 0.62,0.82 1.45,2.33 2.07,4.02 H 28.9 c 0.63,-1.69 1.45,-3.2 2.07,-4.02 0.92,-1.22 2.07,-2.12 3.34,-2.83 4.03,-2.24 14.84,-2.9 18.49,-6.19 z M 50.51,0 H 75.3 c 1.07,0 1.94,0.87 1.94,1.94 v 17.41 c 0,1.07 -0.87,1.94 -1.94,1.94 H 50.51 c -1.07,0 -1.94,-0.87 -1.94,-1.94 V 1.94 C 48.57,0.87 49.44,0 50.51,0 Z M 76.09,5.43 H 49.8 v 14.11 c 0,0.15 0.06,0.28 0.16,0.38 0.1,0.1 0.23,0.16 0.38,0.16 h 25.21 c 0.15,0 0.28,-0.06 0.38,-0.16 0.1,-0.1 0.16,-0.23 0.16,-0.38 V 5.43 Z M 73.45,2.18 c 0.53,0 0.96,0.43 0.96,0.96 0,0.53 -0.43,0.96 -0.96,0.96 -0.53,0 -0.96,-0.43 -0.96,-0.96 0,-0.53 0.43,-0.96 0.96,-0.96 z m -6.5,0 c 0.53,0 0.96,0.43 0.96,0.96 0,0.53 -0.43,0.96 -0.96,0.96 -0.53,0 -0.96,-0.43 -0.96,-0.96 0,-0.53 0.43,-0.96 0.96,-0.96 z m 3.25,0 c 0.53,0 0.96,0.43 0.96,0.96 0,0.53 -0.43,0.96 -0.96,0.96 -0.53,0 -0.96,-0.43 -0.96,-0.96 0,-0.53 0.43,-0.96 0.96,-0.96 z m -10.84,9.2 -3.16,1.19 3.16,1.2 v 2.78 L 54.45,13.77 V 11.38 L 59.36,8.6 Z m 12,0 v 2.39 l -4.91,2.78 v -2.78 l 3.16,-1.2 -3.16,-1.19 V 8.59 Z m -8.51,5.95 H 60.76 L 63.34,7.27 h 2.09 z m 57.04,38.31 c 0.04,0 0.08,0 0.12,0.01 0.25,-0.44 0.48,-0.91 0.7,-1.4 0.01,-0.01 0.01,-0.02 0.02,-0.02 0.31,-0.75 0.56,-1.52 0.71,-2.32 0.12,-0.62 0.21,-1.26 0.23,-1.91 h -3.76 c -0.07,1.91 -0.64,3.79 -1.7,5.64 z m -0.65,1.2 h -3.78 c -1.15,1.67 -2.7,3.31 -4.63,4.93 0.3,-0.04 0.61,-0.09 0.9,-0.15 0.81,-0.16 1.59,-0.4 2.35,-0.73 0.76,-0.33 1.48,-0.71 2.14,-1.16 0.66,-0.44 1.27,-0.94 1.84,-1.51 0.42,-0.43 0.83,-0.89 1.18,-1.38 z m -11.64,4.93 c -1.94,-1.62 -3.49,-3.26 -4.63,-4.93 h -3.78 c 0.36,0.49 0.76,0.95 1.2,1.39 0.57,0.57 1.17,1.07 1.84,1.51 0.66,0.44 1.37,0.83 2.14,1.16 0.01,0.01 0.02,0.01 0.02,0.02 0.75,0.31 1.52,0.56 2.32,0.71 0.29,0.05 0.59,0.09 0.89,0.14 z m -9.2,-6.13 h 3.81 c -1.06,-1.85 -1.63,-3.74 -1.7,-5.64 h -3.76 c 0.03,0.66 0.11,1.29 0.23,1.91 0.16,0.81 0.4,1.59 0.73,2.35 0.2,0.48 0.43,0.94 0.69,1.38 z M 96.75,48.8 h 3.78 c 0.14,-1.87 0.76,-3.75 1.87,-5.64 h -4 c -0.25,0.44 -0.48,0.9 -0.69,1.39 -0.01,0.01 -0.01,0.02 -0.02,0.02 -0.31,0.75 -0.56,1.52 -0.71,2.32 -0.13,0.62 -0.21,1.25 -0.23,1.91 z m 2.43,-6.84 h 3.99 c 1.14,-1.64 2.64,-3.29 4.51,-4.95 -0.34,0.04 -0.66,0.09 -0.98,0.16 -0.81,0.16 -1.59,0.4 -2.35,0.73 -0.76,0.33 -1.48,0.71 -2.14,1.16 -0.66,0.44 -1.27,0.94 -1.84,1.51 -0.43,0.43 -0.83,0.89 -1.19,1.39 z m 11.55,-4.95 c 1.88,1.66 3.38,3.31 4.51,4.95 h 3.99 c -0.36,-0.49 -0.76,-0.95 -1.2,-1.39 -0.57,-0.57 -1.17,-1.07 -1.84,-1.51 -0.66,-0.44 -1.37,-0.83 -2.14,-1.16 -0.01,-0.01 -0.02,-0.01 -0.02,-0.02 -0.75,-0.31 -1.52,-0.56 -2.32,-0.71 -0.32,-0.06 -0.65,-0.11 -0.98,-0.16 z m 9.29,6.15 h -4 c 1.11,1.89 1.73,3.77 1.87,5.64 h 3.78 c -0.03,-0.66 -0.11,-1.29 -0.23,-1.91 -0.16,-0.81 -0.4,-1.59 -0.73,-2.35 -0.21,-0.48 -0.44,-0.94 -0.69,-1.38 z m -13.56,-7.17 c 0.89,-0.18 1.8,-0.27 2.75,-0.27 0.94,0 1.85,0.09 2.75,0.27 0.88,0.17 1.72,0.43 2.55,0.79 0.01,0 0.02,0.01 0.03,0.02 0.82,0.35 1.6,0.78 2.33,1.26 0.73,0.48 1.4,1.04 2.02,1.66 0.62,0.62 1.17,1.29 1.66,2.02 0.49,0.73 0.91,1.51 1.26,2.33 0.36,0.84 0.62,1.7 0.8,2.58 0.18,0.89 0.27,1.8 0.27,2.75 0,0.94 -0.09,1.85 -0.27,2.75 -0.17,0.88 -0.43,1.72 -0.79,2.55 0,0.01 -0.01,0.02 -0.02,0.03 -0.35,0.83 -0.78,1.6 -1.26,2.33 -0.48,0.73 -1.04,1.4 -1.66,2.02 -0.62,0.62 -1.29,1.17 -2.02,1.66 -0.73,0.49 -1.51,0.91 -2.33,1.26 -0.84,0.36 -1.7,0.62 -2.58,0.8 -0.89,0.18 -1.8,0.27 -2.75,0.27 -0.94,0 -1.85,-0.09 -2.75,-0.27 -0.88,-0.17 -1.72,-0.43 -2.55,-0.79 -0.01,0 -0.02,-0.01 -0.03,-0.02 -0.82,-0.35 -1.6,-0.78 -2.33,-1.26 -0.73,-0.48 -1.4,-1.04 -2.02,-1.66 -0.62,-0.62 -1.17,-1.29 -1.66,-2.02 -0.49,-0.73 -0.91,-1.51 -1.26,-2.33 -0.36,-0.84 -0.62,-1.7 -0.8,-2.58 -0.18,-0.89 -0.27,-1.8 -0.27,-2.75 0,-0.94 0.09,-1.85 0.27,-2.75 0.17,-0.88 0.43,-1.72 0.79,-2.55 0,-0.01 0.01,-0.02 0.02,-0.03 0.35,-0.83 0.78,-1.6 1.26,-2.33 0.48,-0.73 1.04,-1.4 1.66,-2.02 0.62,-0.62 1.29,-1.17 2.02,-1.66 0.73,-0.49 1.51,-0.91 2.33,-1.26 0.83,-0.35 1.69,-0.61 2.58,-0.8 z m 3.35,1.8 v 4.17 h 3.97 c -1.05,-1.38 -2.37,-2.77 -3.97,-4.17 z m 0,5.37 v 5.64 h 6.88 c -0.16,-1.85 -0.85,-3.73 -2.08,-5.64 z m 0,6.84 v 5.64 h 5.01 c 1.19,-1.87 1.82,-3.75 1.89,-5.64 z m 0,6.84 v 4.22 c 1.7,-1.39 3.09,-2.8 4.17,-4.22 z m -1.2,4.21 v -4.22 h -4.17 c 1.07,1.42 2.46,2.83 4.17,4.22 z m 0,-5.41 V 50 h -6.91 c 0.07,1.89 0.71,3.77 1.89,5.64 z m 0,-6.84 v -5.64 h -4.81 c -1.23,1.91 -1.92,3.79 -2.07,5.64 z m 0,-6.84 v -4.17 c -1.61,1.4 -2.93,2.79 -3.97,4.17 z M 9.43,49.4 5,42.97 c 0.78,-0.94 1.46,-1.94 2.05,-2.99 0.61,-1.09 1.12,-2.23 1.56,-3.42 l 7.8,0.75 z m 1.46,0.88 7.01,-12.15 12.09,6.98 -0.96,1.66 -9.62,-5.55 c -0.52,-0.3 -1.2,-0.12 -1.5,0.4 -0.3,0.52 -0.12,1.2 0.4,1.5 l 9.62,5.55 -0.9,1.55 -9.62,-5.55 c -0.52,-0.3 -1.2,-0.12 -1.5,0.4 -0.3,0.52 -0.12,1.2 0.4,1.5 l 9.62,5.55 -0.9,1.55 -9.62,-5.55 c -0.52,-0.3 -1.2,-0.12 -1.5,0.4 -0.3,0.52 -0.12,1.2 0.4,1.5 l 9.62,5.55 -0.96,1.66 z M 3.48,40.78 0,35.73 5.97,36.31 c -0.34,0.84 -0.72,1.65 -1.15,2.42 -0.39,0.72 -0.84,1.4 -1.34,2.05 z m 13.89,43.38 c 0.51,1.14 0,2.48 -1.15,2.99 -1.14,0.51 -2.48,0 -2.99,-1.15 -1.27,-2.84 -2.31,-5.79 -3.07,-8.84 -0.75,-2.99 -1.25,-6.09 -1.48,-9.26 -0.09,-1.25 0.85,-2.34 2.11,-2.43 1.25,-0.09 2.34,0.85 2.43,2.11 0.21,2.9 0.67,5.73 1.35,8.47 0.7,2.83 1.65,5.53 2.8,8.11 z M 26.91,30 c -0.93,0.83 -2.36,0.75 -3.2,-0.18 -0.83,-0.93 -0.75,-2.36 0.18,-3.2 2.12,-1.89 4.6,-3.83 7.16,-5.5 2.3,-1.5 4.67,-2.79 6.93,-3.67 1.17,-0.45 2.48,0.13 2.93,1.3 0.45,1.17 -0.13,2.48 -1.3,2.93 -1.95,0.75 -4.04,1.9 -6.1,3.24 -2.36,1.55 -4.66,3.34 -6.6,5.08 z M 85.7,20.39 c -1.08,-0.63 -1.44,-2.02 -0.81,-3.1 0.63,-1.08 2.02,-1.44 3.1,-0.81 2.54,1.48 4.95,3.18 7.2,5.05 2.27,1.88 4.38,3.95 6.3,6.16 0.82,0.95 0.72,2.38 -0.23,3.2 -0.95,0.82 -2.38,0.72 -3.2,-0.23 -1.77,-2.04 -3.7,-3.93 -5.76,-5.65 -2.06,-1.7 -4.27,-3.25 -6.6,-4.62 z m 25.16,50.18 c 0.16,-1.24 1.3,-2.12 2.54,-1.95 1.24,0.17 2.12,1.3 1.95,2.54 -0.34,2.56 -0.85,5.05 -1.53,7.45 -0.69,2.47 -1.56,4.85 -2.57,7.15 -0.51,1.15 -1.85,1.67 -2.99,1.16 -1.15,-0.51 -1.67,-1.85 -1.16,-2.99 0.94,-2.12 1.73,-4.3 2.36,-6.54 0.62,-2.23 1.1,-4.51 1.4,-6.82 z M 50.27,54.51 c -0.69,0.03 -1.22,0.17 -1.57,0.41 -0.2,0.14 -0.35,0.31 -0.45,0.52 -0.11,0.23 -0.16,0.51 -0.15,0.84 0.03,0.95 0.53,2.19 1.49,3.62 l 0.01,0.02 v 0 l 3.12,4.97 c 1.25,1.99 2.57,4.02 4.2,5.51 1.57,1.43 3.47,2.41 5.99,2.41 2.73,0.01 4.72,-1 6.34,-2.52 1.68,-1.58 3.01,-3.74 4.32,-5.89 l 3.52,-5.8 c 0.66,-1.5 0.89,-2.5 0.74,-3.09 -0.09,-0.35 -0.48,-0.52 -1.13,-0.55 -0.14,-0.01 -0.28,-0.01 -0.43,0 -0.16,0 -0.32,0.02 -0.49,0.03 -0.09,0.01 -0.18,0 -0.27,-0.02 -0.31,0.02 -0.64,0 -0.96,-0.05 l 1.21,-4.84 C 66.82,51.49 60.13,44.85 50.68,48.75 l 0.68,5.79 c -0.4,0.04 -0.76,0.02 -1.09,-0.03 z M 77.9,53.39 c 0.87,0.26 1.42,0.81 1.65,1.7 0.25,0.98 -0.02,2.37 -0.86,4.27 v 0 c -0.02,0.03 -0.03,0.07 -0.05,0.1 l -3.56,5.86 c -1.37,2.26 -2.77,4.52 -4.62,6.27 -1.93,1.8 -4.3,3 -7.54,2.99 -3.03,-0.01 -5.31,-1.17 -7.18,-2.88 -1.81,-1.65 -3.19,-3.79 -4.5,-5.87 l -3.12,-4.97 c -1.14,-1.7 -1.74,-3.26 -1.77,-4.54 -0.02,-0.6 0.08,-1.15 0.31,-1.63 0.23,-0.5 0.59,-0.92 1.07,-1.25 0.23,-0.15 0.48,-0.28 0.76,-0.39 -0.2,-2.69 -0.28,-5.59 -0.15,-8.43 0.07,-0.67 0.2,-1.35 0.39,-2.02 0.8,-2.85 2.8,-4.16 5.28,-5.73 1.37,-0.87 2.86,-1.53 4.43,-1.97 0.99,-0.28 -0.84,-3.45 0.18,-3.56 4.96,-0.51 12.98,4.02 16.45,7.76 1.73,1.88 2.82,3.37 3.06,6.66 z"
           id="path7943"
           inkscape:connector-curvature="0" />
      </g>
      <path
         d="m 165.77817,127.10032 h 6.51716 a 1.0450375,1.0450375 0 0 0 0.45083,-0.10196 1.0641541,1.0641541 0 0 0 0.36162,-0.28515 1.0561888,1.0561888 0 0 0 0.23896,-0.6643 v -6.49007 a 1.0450375,1.0450375 0 0 0 -0.0844,-0.411 1.0545958,1.0545958 0 0 0 -0.57031,-0.56235 1.0450375,1.0450375 0 0 0 -0.39666,-0.0749 h -6.51716 a 1.0354792,1.0354792 0 0 0 -0.3871,0.0765 1.025921,1.025921 0 0 0 -0.33614,0.21347 1.0514096,1.0514096 0 0 0 -0.24054,0.34729 1.0036184,1.0036184 0 0 0 -0.0876,0.411 v 6.49007 a 1.0418514,1.0418514 0 0 0 0.0685,0.36959 1.0705263,1.0705263 0 0 0 0.19117,0.31861 l 0.0414,0.043 a 1.0960149,1.0960149 0 0 0 0.3186,0.22143 1.0689332,1.0689332 0 0 0 0.4349,0.0956 z m 8.39535,-14.89178 4.25344,-4.24866 a 0.98609486,0.98609486 0 0 1 0.35365,-0.2278 0.99406009,0.99406009 0 0 1 0.42216,-0.0542 0.95582703,0.95582703 0 0 1 0.58783,0.27719 l 4.22953,4.22953 a 0.95582703,0.95582703 0 0 1 0.21188,0.31861 0.97653658,0.97653658 0 0 1 -0.21188,1.04822 l -4.24705,4.25502 a 0.95582703,0.95582703 0 0 1 -0.30268,0.20233 0.94308263,0.94308263 0 0 1 -0.35685,0.0797 0.97335054,0.97335054 0 0 1 -0.38391,-0.0685 0.91440781,0.91440781 0 0 1 -0.32658,-0.21348 l -4.22954,-4.23431 a 0.97016435,0.97016435 0 0 1 -0.28037,-0.6181 v -0.051 a 0.97812966,0.97812966 0 0 1 0.28197,-0.69456 z m -8.39535,4.9703 h 6.51716 a 1.0450375,1.0450375 0 0 0 0.81245,-0.38712 1.029107,1.029107 0 0 0 0.17683,-0.31861 1.0498166,1.0498166 0 0 0 0.0621,-0.35206 v -6.4821 a 1.0530027,1.0530027 0 0 0 -0.0844,-0.411 1.0545958,1.0545958 0 0 0 -0.57031,-0.56394 1.0450375,1.0450375 0 0 0 -0.39029,-0.0765 h -6.52353 a 1.0354792,1.0354792 0 0 0 -0.3871,0.0765 1.025921,1.025921 0 0 0 -0.33614,0.21347 1.0514096,1.0514096 0 0 0 -0.24054,0.34728 1.0052114,1.0052114 0 0 0 -0.0876,0.41419 v 6.49007 a 1.0322931,1.0322931 0 0 0 0.0685,0.36799 1.0514096,1.0514096 0 0 0 0.19117,0.31861 l 0.0414,0.043 a 1.0960149,1.0960149 0 0 0 0.3186,0.22143 1.0689332,1.0689332 0 0 0 0.4349,0.0956 z m 6.51874,-1.04664 h -6.51874 v 0 -6.49803 c 0.55916,0 6.52034,0 6.53149,0 0,0.54801 0,6.49166 0,6.49485 z m 3.54135,10.96812 h 6.51714 a 1.0450375,1.0450375 0 0 0 0.45083,-0.10196 1.0641541,1.0641541 0 0 0 0.36163,-0.28515 1.0561888,1.0561888 0 0 0 0.23895,-0.6643 v -6.49007 a 1.0450375,1.0450375 0 0 0 -0.0844,-0.40941 1.0545958,1.0545958 0 0 0 -0.57668,-0.56394 1.0450375,1.0450375 0 0 0 -0.3903,-0.0765 h -6.51714 a 1.0753054,1.0753054 0 0 0 -0.72325,0.28994 1.0514096,1.0514096 0 0 0 -0.24055,0.34888 1.0036184,1.0036184 0 0 0 -0.0876,0.41259 v 6.49007 a 1.0418514,1.0418514 0 0 0 0.0685,0.36959 1.0705263,1.0705263 0 0 0 0.19117,0.3186 l 0.0414,0.043 a 1.0960149,1.0960149 0 0 0 0.31861,0.22143 1.0689332,1.0689332 0 0 0 0.43489,0.0956 z m 6.51874,-1.04664 h -6.51874 v 0 -6.49484 c 0.55916,0 6.52033,0 6.53148,0 0,0.54801 0,6.49166 0,6.49484 z m -10.06009,0 h -6.51874 v 0 -6.49802 c 0.55916,0 6.52034,0 6.53149,0 0,0.54801 0,6.49165 0,6.49484 z"
         id="path8023"
         style="stroke-width:0.15930451"
         inkscape:connector-curvature="0" />
    </g>
  </g>
</svg>
