<?xml version="1.0" encoding="UTF-8" standalone="no"?>
<svg
   xmlns:dc="http://purl.org/dc/elements/1.1/"
   xmlns:cc="http://creativecommons.org/ns#"
   xmlns:rdf="http://www.w3.org/1999/02/22-rdf-syntax-ns#"
   xmlns:svg="http://www.w3.org/2000/svg"
   xmlns="http://www.w3.org/2000/svg"
   id="svg114"
   version="1.1"
   viewBox="0 0 210 297"
   height="297mm"
   width="210mm">
  <defs
     id="defs108" />
  <metadata
     id="metadata111">
    <rdf:RDF>
      <cc:Work
         rdf:about="">
        <dc:format>image/svg+xml</dc:format>
        <dc:type
           rdf:resource="http://purl.org/dc/dcmitype/StillImage" />
        <dc:title></dc:title>
      </cc:Work>
    </rdf:RDF>
  </metadata>
  <g
     id="layer1">
    <g
       id="g261">
      <g
         id="flowRoot8191"
         style="font-style:normal;font-weight:normal;font-size:40px;line-height:1.25;font-family:sans-serif;letter-spacing:0px;word-spacing:0px;fill:#000000;fill-opacity:1;stroke:none"
         transform="matrix(0.18256517,0,0,0.18256517,-15.602971,63.514154)"
         aria-label="Inhouse
Vývoj">
        <path
           id="path371"
           style="font-style:normal;font-variant:normal;font-weight:normal;font-stretch:normal;font-size:39.99941635px;font-family:sans-serif;-inkscape-font-specification:'sans-serif, Normal';font-variant-ligatures:normal;font-variant-caps:normal;font-variant-numeric:normal;font-feature-settings:normal;text-align:center;writing-mode:lr-tb;text-anchor:middle"
           d="m 193.04016,394.75043 h 3.94525 v 29.15973 h -3.94525 z" />
        <path
           id="path373"
           style="font-style:normal;font-variant:normal;font-weight:normal;font-stretch:normal;font-size:39.99941635px;font-family:sans-serif;-inkscape-font-specification:'sans-serif, Normal';font-variant-ligatures:normal;font-variant-caps:normal;font-variant-numeric:normal;font-feature-settings:normal;text-align:center;writing-mode:lr-tb;text-anchor:middle"
           d="m 222.86394,410.70722 v 13.20294 h -3.5937 v -13.08575 q 0,-3.10542 -1.21092,-4.64837 -1.21092,-1.54295 -3.63276,-1.54295 -2.91011,0 -4.58977,1.85545 -1.67967,1.85544 -1.67967,5.05852 v 12.3631 h -3.61322 v -21.87468 h 3.61322 v 3.39838 q 1.28905,-1.97262 3.0273,-2.94917 1.75779,-0.97655 4.04291,-0.97655 3.76948,0 5.70304,2.34372 1.93357,2.32418 1.93357,6.85536 z" />
        <path
           id="path375"
           style="font-style:normal;font-variant:normal;font-weight:normal;font-stretch:normal;font-size:39.99941635px;font-family:sans-serif;-inkscape-font-specification:'sans-serif, Normal';font-variant-ligatures:normal;font-variant-caps:normal;font-variant-numeric:normal;font-feature-settings:normal;text-align:center;writing-mode:lr-tb;text-anchor:middle"
           d="m 248.21513,410.70722 v 13.20294 h -3.59369 v -13.08575 q 0,-3.10542 -1.21092,-4.64837 -1.21092,-1.54295 -3.63276,-1.54295 -2.91012,0 -4.58978,1.85545 -1.67966,1.85544 -1.67966,5.05852 v 12.3631 h -3.61323 v -30.39019 h 3.61323 v 11.91389 q 1.28904,-1.97262 3.0273,-2.94917 1.75778,-0.97655 4.04291,-0.97655 3.76947,0 5.70304,2.34372 1.93356,2.32418 1.93356,6.85536 z" />
        <path
           id="path377"
           style="font-style:normal;font-variant:normal;font-weight:normal;font-stretch:normal;font-size:39.99941635px;font-family:sans-serif;-inkscape-font-specification:'sans-serif, Normal';font-variant-ligatures:normal;font-variant-caps:normal;font-variant-numeric:normal;font-feature-settings:normal;text-align:center;writing-mode:lr-tb;text-anchor:middle"
           d="m 263.85944,404.55497 q -2.89059,0 -4.57025,2.26559 -1.67966,2.24606 -1.67966,6.17179 0,3.92572 1.66013,6.19131 1.67966,2.24606 4.58978,2.24606 2.87105,0 4.55071,-2.26559 1.67966,-2.26559 1.67966,-6.17178 0,-3.88667 -1.67966,-6.15226 -1.67966,-2.28512 -4.55071,-2.28512 z m 0,-3.04683 q 4.68743,0 7.36317,3.04683 2.67574,3.04683 2.67574,8.43738 0,5.37101 -2.67574,8.43737 -2.67574,3.04683 -7.36317,3.04683 -4.70697,0 -7.38271,-3.04683 -2.65621,-3.06636 -2.65621,-8.43737 0,-5.39055 2.65621,-8.43738 2.67574,-3.04683 7.38271,-3.04683 z" />
        <path
           id="path379"
           style="font-style:normal;font-variant:normal;font-weight:normal;font-stretch:normal;font-size:39.99941635px;font-family:sans-serif;-inkscape-font-specification:'sans-serif, Normal';font-variant-ligatures:normal;font-variant-caps:normal;font-variant-numeric:normal;font-feature-settings:normal;text-align:center;writing-mode:lr-tb;text-anchor:middle"
           d="m 279.48421,415.27747 v -13.24199 h 3.5937 v 13.10527 q 0,3.10543 1.21092,4.6679 1.21092,1.54295 3.63276,1.54295 2.91011,0 4.58977,-1.85544 1.6992,-1.85544 1.6992,-5.05852 v -12.40216 h 3.5937 v 21.87468 h -3.5937 v -3.35933 q -1.30858,1.99216 -3.04683,2.96871 -1.71873,0.95701 -4.00385,0.95701 -3.76948,0 -5.72257,-2.34371 -1.9531,-2.34372 -1.9531,-6.85537 z m 9.04284,-13.76933 z" />
        <path
           id="path381"
           style="font-style:normal;font-variant:normal;font-weight:normal;font-stretch:normal;font-size:39.99941635px;font-family:sans-serif;-inkscape-font-specification:'sans-serif, Normal';font-variant-ligatures:normal;font-variant-caps:normal;font-variant-numeric:normal;font-feature-settings:normal;text-align:center;writing-mode:lr-tb;text-anchor:middle"
           d="m 319.1516,402.68 v 3.39839 q -1.52342,-0.78124 -3.16402,-1.17186 -1.6406,-0.39062 -3.39839,-0.39062 -2.67574,0 -4.02338,0.8203 -1.3281,0.8203 -1.3281,2.4609 0,1.24998 0.95701,1.97263 0.95702,0.70311 3.8476,1.34763 l 1.23046,0.27344 q 3.82806,0.8203 5.4296,2.32418 1.62107,1.48436 1.62107,4.1601 0,3.04683 -2.42184,4.82415 -2.4023,1.77731 -6.62099,1.77731 -1.75779,0 -3.67182,-0.35155 -1.89451,-0.33203 -4.00385,-1.01561 v -3.71089 q 1.99216,1.03514 3.92572,1.56248 1.93357,0.50781 3.82807,0.50781 2.53903,0 3.90619,-0.85937 1.36717,-0.87889 1.36717,-2.4609 0,-1.46482 -0.99608,-2.24606 -0.97655,-0.78124 -4.31634,-1.50388 l -1.24998,-0.29297 q -3.3398,-0.70311 -4.82415,-2.1484 -1.48435,-1.46483 -1.48435,-4.00385 0,-3.08589 2.18746,-4.76556 2.18747,-1.67966 6.21085,-1.67966 1.99216,0 3.74995,0.29296 1.75778,0.29297 3.24214,0.8789 z" />
        <path
           id="path383"
           style="font-style:normal;font-variant:normal;font-weight:normal;font-stretch:normal;font-size:39.99941635px;font-family:sans-serif;-inkscape-font-specification:'sans-serif, Normal';font-variant-ligatures:normal;font-variant-caps:normal;font-variant-numeric:normal;font-feature-settings:normal;text-align:center;writing-mode:lr-tb;text-anchor:middle"
           d="m 344.7567,412.07439 v 1.75779 h -16.5232 q 0.23437,3.71088 2.22653,5.66398 2.01169,1.93356 5.58586,1.93356 2.07028,0 4.00385,-0.5078 1.95309,-0.50781 3.86713,-1.52342 v 3.39839 q -1.93357,0.8203 -3.96479,1.24998 -2.03122,0.42968 -4.12103,0.42968 -5.2343,0 -8.30066,-3.04683 -3.04683,-3.04683 -3.04683,-8.24206 0,-5.37102 2.89058,-8.5155 2.91011,-3.16402 7.83192,-3.16402 4.41399,0 6.97255,2.85152 2.57809,2.83199 2.57809,7.71473 z m -3.5937,-1.05467 q -0.0391,-2.94918 -1.66013,-4.70696 -1.60154,-1.75779 -4.25775,-1.75779 -3.00777,0 -4.82415,1.69919 -1.79685,1.6992 -2.07028,4.78509 z" />
        <path
           id="path385"
           style="font-style:normal;font-variant:normal;font-weight:normal;font-stretch:normal;font-size:39.99941635px;font-family:sans-serif;-inkscape-font-specification:'sans-serif, Normal';font-variant-ligatures:normal;font-variant-caps:normal;font-variant-numeric:normal;font-feature-settings:normal;text-align:center;writing-mode:lr-tb;text-anchor:middle"
           d="m 224.83657,473.91016 -11.13265,-29.15973 h 4.12103 l 9.23815,24.55042 9.25767,-24.55042 h 4.10151 l -11.11312,29.15973 z" />
        <path
           id="path387"
           style="font-style:normal;font-variant:normal;font-weight:normal;font-stretch:normal;font-size:39.99941635px;font-family:sans-serif;-inkscape-font-specification:'sans-serif, Normal';font-variant-ligatures:normal;font-variant-caps:normal;font-variant-numeric:normal;font-feature-settings:normal;text-align:center;writing-mode:lr-tb;text-anchor:middle"
           d="m 252.55101,475.94138 q -1.52342,3.90619 -2.96871,5.09758 -1.44529,1.19139 -3.86713,1.19139 h -2.87105 v -3.00777 h 2.10934 q 1.48435,0 2.30466,-0.70312 0.8203,-0.70311 1.81638,-3.32026 l 0.64452,-1.6406 -8.84753,-21.52312 h 3.80854 l 6.83584,17.10912 6.83583,-17.10912 h 3.80854 z m 1.67966,-34.02294 h 3.88666 l -6.36709,7.34364 H 248.762 Z" />
        <path
           id="path389"
           style="font-style:normal;font-variant:normal;font-weight:normal;font-stretch:normal;font-size:39.99941635px;font-family:sans-serif;-inkscape-font-specification:'sans-serif, Normal';font-variant-ligatures:normal;font-variant-caps:normal;font-variant-numeric:normal;font-feature-settings:normal;text-align:center;writing-mode:lr-tb;text-anchor:middle"
           d="m 264.54302,452.03548 h 3.80854 l 6.83584,18.3591 6.83583,-18.3591 h 3.80854 l -8.203,21.87468 h -4.88275 z" />
        <path
           id="path391"
           style="font-style:normal;font-variant:normal;font-weight:normal;font-stretch:normal;font-size:39.99941635px;font-family:sans-serif;-inkscape-font-specification:'sans-serif, Normal';font-variant-ligatures:normal;font-variant-caps:normal;font-variant-numeric:normal;font-feature-settings:normal;text-align:center;writing-mode:lr-tb;text-anchor:middle"
           d="m 299.26907,454.55497 q -2.89058,0 -4.57024,2.26559 -1.67967,2.24606 -1.67967,6.17179 0,3.92572 1.66014,6.19131 1.67966,2.24606 4.58977,2.24606 2.87106,0 4.55072,-2.26559 1.67966,-2.26559 1.67966,-6.17178 0,-3.88667 -1.67966,-6.15226 -1.67966,-2.28512 -4.55072,-2.28512 z m 0,-3.04683 q 4.68744,0 7.36318,3.04683 2.67574,3.04683 2.67574,8.43738 0,5.37101 -2.67574,8.43737 -2.67574,3.04683 -7.36318,3.04683 -4.70696,0 -7.3827,-3.04683 -2.65621,-3.06636 -2.65621,-8.43737 0,-5.39055 2.65621,-8.43738 2.67574,-3.04683 7.3827,-3.04683 z" />
        <path
           id="path393"
           style="font-style:normal;font-variant:normal;font-weight:normal;font-stretch:normal;font-size:39.99941635px;font-family:sans-serif;-inkscape-font-specification:'sans-serif, Normal';font-variant-ligatures:normal;font-variant-caps:normal;font-variant-numeric:normal;font-feature-settings:normal;text-align:center;writing-mode:lr-tb;text-anchor:middle"
           d="m 315.26493,452.03548 h 3.5937 v 22.2653 q 0,4.17962 -1.60154,6.05459 -1.58201,1.87498 -5.11711,1.87498 h -1.36717 v -3.04683 h 0.95702 q 2.05075,0 2.79293,-0.95702 0.74217,-0.93749 0.74217,-3.92572 z m 0,-8.51551 h 3.5937 v 4.55072 h -3.5937 z" />
      </g>
      <g
         id="flowRoot8191-2"
         style="font-style:normal;font-variant:normal;font-weight:normal;font-stretch:normal;font-size:39.99941635px;line-height:1.25;font-family:sans-serif;-inkscape-font-specification:'sans-serif, Normal';font-variant-ligatures:normal;font-variant-caps:normal;font-variant-numeric:normal;font-feature-settings:normal;text-align:center;letter-spacing:0px;word-spacing:0px;writing-mode:lr-tb;text-anchor:middle;fill:#000000;fill-opacity:1;stroke:none"
         transform="matrix(0.18256517,0,0,0.18256517,109.24247,64.213895)"
         aria-label="Provázané aplikační prostředí">
        <path
           id="path396"
           d="m 172.3178,397.99205 v 10.95687 h 4.96087 q 2.75386,0 4.25775,-1.42576 1.50388,-1.42576 1.50388,-4.06244 0,-2.61715 -1.50388,-4.04291 -1.50389,-1.42576 -4.25775,-1.42576 z m -3.94525,-3.24214 h 8.90612 q 4.90227,0 7.40223,2.22653 2.5195,2.207 2.5195,6.48428 0,4.31634 -2.5195,6.52334 -2.49996,2.207 -7.40223,2.207 h -4.96087 v 11.71858 h -3.94525 z" />
        <path
           id="path398"
           d="m 204.30952,405.39429 q -0.60546,-0.35156 -1.3281,-0.50781 -0.70312,-0.17578 -1.56248,-0.17578 -3.04683,0 -4.68743,1.99216 -1.62107,1.97263 -1.62107,5.68351 v 11.52327 h -3.61323 v -21.87468 h 3.61323 v 3.39839 q 1.13279,-1.99216 2.94917,-2.94918 1.81638,-0.97655 4.414,-0.97655 0.37109,0 0.8203,0.0586 0.44922,0.0391 0.99608,0.13671 z" />
        <path
           id="path400"
           d="m 215.67655,404.55445 q -2.89059,0 -4.57025,2.2656 -1.67966,2.24606 -1.67966,6.17178 0,3.92572 1.66013,6.19132 1.67966,2.24606 4.58978,2.24606 2.87105,0 4.55071,-2.26559 1.67966,-2.2656 1.67966,-6.17179 0,-3.88666 -1.67966,-6.15225 -1.67966,-2.28513 -4.55071,-2.28513 z m 0,-3.04683 q 4.68743,0 7.36317,3.04683 2.67574,3.04683 2.67574,8.43738 0,5.37102 -2.67574,8.43738 -2.67574,3.04683 -7.36317,3.04683 -4.70697,0 -7.38271,-3.04683 -2.65621,-3.06636 -2.65621,-8.43738 0,-5.39055 2.65621,-8.43738 2.67574,-3.04683 7.38271,-3.04683 z" />
        <path
           id="path402"
           d="m 229.09432,402.03496 h 3.80854 l 6.83584,18.35911 6.83583,-18.35911 h 3.80854 l -8.203,21.87468 h -4.88274 z" />
        <path
           id="path404"
           d="m 265.2852,412.91371 q -4.3554,0 -6.03507,0.99608 -1.67966,0.99607 -1.67966,3.39838 0,1.91404 1.24998,3.04683 1.26951,1.11327 3.43745,1.11327 2.98824,0 4.78509,-2.10934 1.81638,-2.12888 1.81638,-5.64445 v -0.80077 z m 7.16786,-1.48436 v 12.48029 h -3.59369 v -3.32026 q -1.23045,1.99215 -3.06636,2.94917 -1.83591,0.93749 -4.49213,0.93749 -3.35932,0 -5.35148,-1.87497 -1.97263,-1.89451 -1.97263,-5.05852 0,-3.69136 2.4609,-5.56633 2.48044,-1.87497 7.38271,-1.87497 h 5.03899 v -0.35156 q 0,-2.48043 -1.6406,-3.82807 -1.62107,-1.36717 -4.57025,-1.36717 -1.87497,0 -3.65229,0.44922 -1.77732,0.44921 -3.41792,1.34763 v -3.32026 q 1.97263,-0.76171 3.82807,-1.1328 1.85544,-0.39062 3.61323,-0.39062 4.74602,0 7.08974,2.4609 2.34371,2.46091 2.34371,7.46083 z m -6.5624,-19.51143 h 3.88666 l -6.36709,7.34364 h -2.98824 z" />
        <path
           id="path406"
           d="m 278.29281,402.03496 h 17.07007 v 3.2812 l -13.51543,15.72243 h 13.51543 v 2.87105 h -17.55834 v -3.2812 l 13.51543,-15.72243 h -13.02716 z" />
        <path
           id="path408"
           d="m 310.79234,412.91371 q -4.3554,0 -6.03507,0.99608 -1.67966,0.99607 -1.67966,3.39838 0,1.91404 1.24998,3.04683 1.26952,1.11327 3.43745,1.11327 2.98824,0 4.78509,-2.10934 1.81638,-2.12888 1.81638,-5.64445 v -0.80077 z m 7.16787,-1.48436 v 12.48029 h -3.5937 v -3.32026 q -1.23045,1.99215 -3.06636,2.94917 -1.83591,0.93749 -4.49213,0.93749 -3.35932,0 -5.35148,-1.87497 -1.97263,-1.89451 -1.97263,-5.05852 0,-3.69136 2.4609,-5.56633 2.48044,-1.87497 7.38271,-1.87497 h 5.03899 v -0.35156 q 0,-2.48043 -1.6406,-3.82807 -1.62107,-1.36717 -4.57025,-1.36717 -1.87497,0 -3.65229,0.44922 -1.77732,0.44921 -3.41792,1.34763 v -3.32026 q 1.97263,-0.76171 3.82807,-1.1328 1.85544,-0.39062 3.61323,-0.39062 4.74602,0 7.08974,2.4609 2.34372,2.46091 2.34372,7.46083 z" />
        <path
           id="path410"
           d="m 343.54578,410.70671 v 13.20293 h -3.5937 v -13.08575 q 0,-3.10542 -1.21092,-4.64837 -1.21092,-1.54294 -3.63276,-1.54294 -2.91011,0 -4.58978,1.85544 -1.67966,1.85544 -1.67966,5.05852 v 12.3631 h -3.61323 v -21.87468 h 3.61323 v 3.39839 q 1.28904,-1.97263 3.0273,-2.94918 1.75779,-0.97655 4.04291,-0.97655 3.76948,0 5.70304,2.34372 1.93357,2.32418 1.93357,6.85537 z" />
        <path
           id="path412"
           d="m 369.42429,412.07388 v 1.75778 H 352.9011 q 0.23437,3.71089 2.22653,5.66398 2.01169,1.93357 5.58585,1.93357 2.07029,0 4.00385,-0.50781 1.9531,-0.5078 3.86713,-1.52341 v 3.39838 q -1.93356,0.82031 -3.96478,1.24999 -2.03122,0.42968 -4.12104,0.42968 -5.2343,0 -8.30066,-3.04683 -3.04683,-3.04683 -3.04683,-8.24207 0,-5.37102 2.89059,-8.5155 2.91011,-3.16402 7.83191,-3.16402 4.414,0 6.97256,2.85152 2.57808,2.83199 2.57808,7.71474 z m -3.59369,-1.05468 q -0.0391,-2.94917 -1.66014,-4.70696 -1.60153,-1.75779 -4.25775,-1.75779 -3.00776,0 -4.82414,1.6992 -1.79685,1.69919 -2.07029,4.78508 z m -3.45698,-19.10128 h 3.88666 l -6.3671,7.34364 h -2.98823 z" />
        <path
           id="path414"
           d="m 97.260304,462.91297 q -4.355405,0 -6.035068,0.99608 -1.679663,0.99608 -1.679663,3.39839 0,1.91404 1.249981,3.04683 1.269513,1.11327 3.43745,1.11327 2.988238,0 4.785087,-2.10935 1.816379,-2.12887 1.816379,-5.64445 v -0.80077 z m 7.167866,-1.48435 v 12.48029 h -3.5937 v -3.32027 q -1.23045,1.99216 -3.066361,2.94918 -1.835911,0.93749 -4.492122,0.93749 -3.359326,0 -5.351484,-1.87498 -1.972628,-1.8945 -1.972628,-5.05852 0,-3.69135 2.460902,-5.56632 2.480432,-1.87497 7.382704,-1.87497 h 5.038989 v -0.35156 q 0,-2.48043 -1.640601,-3.82807 -1.62107,-1.36717 -4.570245,-1.36717 -1.874973,0 -3.652291,0.44921 -1.777318,0.44922 -3.417919,1.34764 v -3.32026 q 1.972628,-0.76171 3.828069,-1.1328 1.855442,-0.39062 3.613229,-0.39062 4.746024,0 7.089738,2.4609 2.34372,2.4609 2.34372,7.46083 z" />
        <path
           id="path416"
           d="m 115.30691,470.62771 v 11.60139 h -3.61322 v -30.19487 h 3.61322 v 3.32026 q 1.1328,-1.9531 2.85153,-2.89058 1.73825,-0.95702 4.14056,-0.95702 3.98432,0 6.46475,3.16402 2.49996,3.16401 2.49996,8.32019 0,5.15617 -2.49996,8.32019 -2.48043,3.16402 -6.46475,3.16402 -2.40231,0 -4.14056,-0.93749 -1.71873,-0.95702 -2.85153,-2.91011 z m 12.22639,-7.63661 q 0,-3.96479 -1.6406,-6.21085 -1.62107,-2.26559 -4.47259,-2.26559 -2.85152,0 -4.49213,2.26559 -1.62107,2.24606 -1.62107,6.21085 0,3.96478 1.62107,6.23038 1.64061,2.24606 4.49213,2.24606 2.85152,0 4.47259,-2.24606 1.6406,-2.2656 1.6406,-6.23038 z" />
        <path
           id="path418"
           d="m 137.22066,443.51873 h 3.5937 v 30.39018 h -3.5937 z" />
        <path
           id="path420"
           d="m 148.33378,452.03423 h 3.59369 v 21.87468 h -3.59369 z m 0,-8.5155 h 3.59369 v 4.55071 h -3.59369 z" />
        <path
           id="path422"
           d="m 159.31018,443.51873 h 3.61323 v 17.94895 l 10.7225,-9.43345 h 4.58977 l -11.60139,10.23422 12.08967,11.64046 h -4.68743 l -11.11312,-10.68344 v 10.68344 h -3.61323 z" />
        <path
           id="path424"
           d="m 191.84877,462.91297 q -4.35541,0 -6.03507,0.99608 -1.67966,0.99608 -1.67966,3.39839 0,1.91404 1.24998,3.04683 1.26951,1.11327 3.43745,1.11327 2.98823,0 4.78508,-2.10935 1.81638,-2.12887 1.81638,-5.64445 v -0.80077 z m 7.16786,-1.48435 v 12.48029 h -3.5937 v -3.32027 q -1.23045,1.99216 -3.06636,2.94918 -1.83591,0.93749 -4.49212,0.93749 -3.35933,0 -5.35148,-1.87498 -1.97263,-1.8945 -1.97263,-5.05852 0,-3.69135 2.4609,-5.56632 2.48043,-1.87497 7.3827,-1.87497 h 5.03899 v -0.35156 q 0,-2.48043 -1.6406,-3.82807 -1.62107,-1.36717 -4.57024,-1.36717 -1.87498,0 -3.65229,0.44921 -1.77732,0.44922 -3.41792,1.34764 v -3.32026 q 1.97262,-0.76171 3.82807,-1.1328 1.85544,-0.39062 3.61322,-0.39062 4.74603,0 7.08975,2.4609 2.34371,2.4609 2.34371,7.46083 z" />
        <path
           id="path426"
           d="m 222.16082,452.87406 v 3.35932 q -1.52341,-0.83983 -3.06636,-1.24998 -1.52341,-0.42968 -3.08589,-0.42968 -3.49604,0 -5.42961,2.22653 -1.93356,2.207 -1.93356,6.21085 0,4.00385 1.93356,6.23038 1.93357,2.20699 5.42961,2.20699 1.56248,0 3.08589,-0.41015 1.54295,-0.42968 3.06636,-1.26951 v 3.32027 q -1.50388,0.70311 -3.12495,1.05467 -1.60154,0.35156 -3.41792,0.35156 -4.94133,0 -7.85145,-3.10543 -2.91011,-3.10542 -2.91011,-8.37878 0,-5.35149 2.92964,-8.41785 2.94918,-3.06636 8.06629,-3.06636 1.66013,0 3.24214,0.35156 1.58201,0.33202 3.06636,1.01561 z m -8.28113,-3.61323 -4.78508,-7.34364 h 2.7148 l 3.51558,4.78508 3.51557,-4.78508 h 2.7148 l -4.78508,7.34364 z" />
        <path
           id="path428"
           d="m 246.59406,460.70598 v 13.20293 h -3.5937 v -13.08575 q 0,-3.10542 -1.21092,-4.64837 -1.21092,-1.54295 -3.63276,-1.54295 -2.91011,0 -4.58977,1.85545 -1.67967,1.85544 -1.67967,5.05852 v 12.3631 h -3.61322 v -21.87468 h 3.61322 v 3.39838 q 1.28905,-1.97262 3.0273,-2.94917 1.75779,-0.97655 4.04291,-0.97655 3.76948,0 5.70305,2.34372 1.93356,2.32418 1.93356,6.85537 z" />
        <path
           id="path430"
           d="m 258.27358,441.91719 h 3.88666 l -6.36709,7.34364 h -2.98824 z m -4.51165,10.11704 h 3.5937 v 21.87468 h -3.5937 z m 1.79685,-0.52734 z" />
        <path
           id="path432"
           d="m 281.06621,470.62771 v 11.60139 h -3.61322 v -30.19487 h 3.61322 v 3.32026 q 1.1328,-1.9531 2.85153,-2.89058 1.73825,-0.95702 4.14056,-0.95702 3.98432,0 6.46475,3.16402 2.49996,3.16401 2.49996,8.32019 0,5.15617 -2.49996,8.32019 -2.48043,3.16402 -6.46475,3.16402 -2.40231,0 -4.14056,-0.93749 -1.71873,-0.95702 -2.85153,-2.91011 z m 12.22639,-7.63661 q 0,-3.96479 -1.6406,-6.21085 -1.62107,-2.26559 -4.47259,-2.26559 -2.85152,0 -4.49213,2.26559 -1.62107,2.24606 -1.62107,6.21085 0,3.96478 1.62107,6.23038 1.64061,2.24606 4.49213,2.24606 2.85152,0 4.47259,-2.24606 1.6406,-2.2656 1.6406,-6.23038 z" />
        <path
           id="path434"
           d="m 315.65556,455.39355 q -0.60546,-0.35155 -1.32811,-0.5078 -0.70311,-0.17578 -1.56247,-0.17578 -3.04684,0 -4.68744,1.99216 -1.62107,1.97262 -1.62107,5.68351 v 11.52327 h -3.61322 v -21.87468 h 3.61322 v 3.39838 q 1.1328,-1.99215 2.94918,-2.94917 1.81638,-0.97655 4.414,-0.97655 0.37109,0 0.8203,0.0586 0.44921,0.0391 0.99608,0.13672 z" />
        <path
           id="path436"
           d="m 327.02258,454.55372 q -2.89058,0 -4.57025,2.26559 -1.67966,2.24606 -1.67966,6.17179 0,3.92572 1.66013,6.19131 1.67966,2.24606 4.58978,2.24606 2.87105,0 4.55071,-2.26559 1.67967,-2.26559 1.67967,-6.17178 0,-3.88666 -1.67967,-6.15226 -1.67966,-2.28512 -4.55071,-2.28512 z m 0,-3.04683 q 4.68743,0 7.36317,3.04683 2.67574,3.04683 2.67574,8.43738 0,5.37101 -2.67574,8.43737 -2.67574,3.04684 -7.36317,3.04684 -4.70696,0 -7.38271,-3.04684 -2.65621,-3.06636 -2.65621,-8.43737 0,-5.39055 2.65621,-8.43738 2.67575,-3.04683 7.38271,-3.04683 z" />
        <path
           id="path438"
           d="m 356.96354,452.67875 v 3.39839 q -1.52342,-0.78124 -3.16402,-1.17186 -1.6406,-0.39062 -3.39839,-0.39062 -2.67574,0 -4.02337,0.8203 -1.32811,0.8203 -1.32811,2.4609 0,1.24998 0.95702,1.97263 0.95701,0.70311 3.8476,1.34764 l 1.23045,0.27343 q 3.82807,0.8203 5.42961,2.32418 1.62107,1.48436 1.62107,4.1601 0,3.04683 -2.42184,4.82415 -2.40231,1.77732 -6.621,1.77732 -1.75779,0 -3.67182,-0.35156 -1.89451,-0.33203 -4.00385,-1.01561 v -3.71089 q 1.99216,1.03515 3.92572,1.56248 1.93357,0.50781 3.82807,0.50781 2.53903,0 3.9062,-0.85937 1.36716,-0.87889 1.36716,-2.4609 0,-1.46482 -0.99608,-2.24606 -0.97654,-0.78124 -4.31634,-1.50388 l -1.24998,-0.29297 q -3.3398,-0.70311 -4.82415,-2.1484 -1.48435,-1.46483 -1.48435,-4.00385 0,-3.08589 2.18747,-4.76556 2.18746,-1.67966 6.21084,-1.67966 1.99216,0 3.74995,0.29297 1.75778,0.29296 3.24214,0.87889 z" />
        <path
           id="path440"
           d="m 367.41262,445.82338 v 6.21085 h 7.40223 v 2.79292 h -7.40223 v 11.87483 q 0,2.67574 0.72264,3.43745 0.74218,0.76171 2.98824,0.76171 h 3.69135 v 3.00777 h -3.69135 q -4.16009,0 -5.7421,-1.54295 -1.58201,-1.56248 -1.58201,-5.66398 v -11.87483 h -2.63668 v -2.79292 h 2.63668 v -6.21085 z" />
        <path
           id="path442"
           d="m 392.21693,455.39355 q -0.60546,-0.35155 -1.32811,-0.5078 -0.70311,-0.17578 -1.56247,-0.17578 -3.04683,0 -4.68744,1.99216 -1.62107,1.97262 -1.62107,5.68351 v 11.52327 h -3.61322 v -21.87468 h 3.61322 v 3.39838 q 1.1328,-1.99215 2.94918,-2.94917 1.81638,-0.97655 4.414,-0.97655 0.37109,0 0.8203,0.0586 0.44921,0.0391 0.99608,0.13672 z m -7.36317,-6.13272 -4.78509,-7.34364 h 2.7148 l 3.51558,4.78508 3.51557,-4.78508 h 2.7148 l -4.78508,7.34364 z" />
        <path
           id="path444"
           d="m 413.81819,462.07314 v 1.75779 h -16.5232 q 0.23437,3.71088 2.22653,5.66398 2.01169,1.93356 5.58586,1.93356 2.07028,0 4.00385,-0.5078 1.95309,-0.50781 3.86713,-1.52342 v 3.39839 q -1.93357,0.8203 -3.96479,1.24998 -2.03122,0.42969 -4.12103,0.42969 -5.2343,0 -8.30066,-3.04684 -3.04683,-3.04683 -3.04683,-8.24206 0,-5.37102 2.89058,-8.5155 2.91011,-3.16402 7.83192,-3.16402 4.414,0 6.97255,2.85152 2.57809,2.83199 2.57809,7.71473 z m -3.5937,-1.05467 q -0.0391,-2.94918 -1.66013,-4.70696 -1.60154,-1.75779 -4.25775,-1.75779 -3.00777,0 -4.82415,1.6992 -1.79685,1.69919 -2.07028,4.78508 z" />
        <path
           id="path446"
           d="m 434.11086,455.35449 v -11.83576 h 3.59369 v 30.39018 h -3.59369 v -3.2812 q -1.1328,1.95309 -2.87106,2.91011 -1.71872,0.93749 -4.14056,0.93749 -3.96479,0 -6.46475,-3.16402 -2.48043,-3.16402 -2.48043,-8.32019 0,-5.15618 2.48043,-8.32019 2.49996,-3.16402 6.46475,-3.16402 2.42184,0 4.14056,0.95702 1.73826,0.93748 2.87106,2.89058 z m -12.24592,7.63661 q 0,3.96478 1.62107,6.23038 1.6406,2.24606 4.49212,2.24606 2.85152,0 4.49212,-2.24606 1.64061,-2.2656 1.64061,-6.23038 0,-3.96479 -1.64061,-6.21085 -1.6406,-2.26559 -4.49212,-2.26559 -2.85152,0 -4.49212,2.26559 -1.62107,2.24606 -1.62107,6.21085 z" />
        <path
           id="path448"
           d="m 449.61845,441.91719 h 3.88666 l -6.3671,7.34364 h -2.98823 z m -4.51166,10.11704 h 3.5937 v 21.87468 h -3.5937 z m 1.79685,-0.52734 z" />
      </g>
      <g
         id="flowRoot8191-2-7"
         style="font-style:normal;font-weight:normal;font-size:40px;line-height:1.25;font-family:sans-serif;letter-spacing:0px;word-spacing:0px;fill:#000000;fill-opacity:1;stroke:none"
         transform="matrix(0.18256517,0,0,0.18256517,66.485989,63.420145)"
         aria-label="Openshift">
        <path
           id="path451"
           d="m 93.761719,397.42578 q -4.296875,0 -6.835938,3.20313 -2.519531,3.20312 -2.519531,8.73046 0,5.50782 2.519531,8.71094 2.539063,3.20313 6.835938,3.20313 4.296875,0 6.796871,-3.20313 2.51954,-3.20312 2.51954,-8.71094 0,-5.52734 -2.51954,-8.73046 -2.499996,-3.20313 -6.796871,-3.20313 z m 0,-3.20312 q 6.132812,0 9.804691,4.12109 3.67187,4.10156 3.67187,11.01562 0,6.89454 -3.67187,11.01563 -3.671879,4.10156 -9.804691,4.10156 -6.152344,0 -9.84375,-4.10156 -3.671875,-4.10156 -3.671875,-11.01563 0,-6.91406 3.671875,-11.01562 3.691406,-4.12109 9.84375,-4.12109 z" />
        <path
           id="path453"
           d="m 116.73047,420.62891 v 11.60156 h -3.61328 v -30.19531 h 3.61328 v 3.32031 q 1.13281,-1.95313 2.85156,-2.89063 1.73828,-0.95703 4.14063,-0.95703 3.98437,0 6.46484,3.16406 2.5,3.16407 2.5,8.32032 0,5.15625 -2.5,8.32031 -2.48047,3.16406 -6.46484,3.16406 -2.40235,0 -4.14063,-0.9375 -1.71875,-0.95703 -2.85156,-2.91015 z m 12.22656,-7.63672 q 0,-3.96485 -1.64062,-6.21094 -1.6211,-2.26563 -4.47266,-2.26563 -2.85156,0 -4.49219,2.26563 -1.62109,2.24609 -1.62109,6.21094 0,3.96484 1.62109,6.23047 1.64063,2.24609 4.49219,2.24609 2.85156,0 4.47266,-2.24609 1.64062,-2.26563 1.64062,-6.23047 z" />
        <path
           id="path455"
           d="m 157.35547,412.07422 v 1.75781 h -16.52344 q 0.23438,3.71094 2.22656,5.66406 2.01172,1.9336 5.58594,1.9336 2.07031,0 4.00391,-0.50782 1.95312,-0.50781 3.86718,-1.52343 v 3.39843 q -1.93359,0.82032 -3.96484,1.25 -2.03125,0.42969 -4.12109,0.42969 -5.23438,0 -8.30078,-3.04687 -3.04688,-3.04688 -3.04688,-8.24219 0,-5.37109 2.89063,-8.51563 2.91015,-3.16406 7.83203,-3.16406 4.41406,0 6.97265,2.85156 2.57813,2.83204 2.57813,7.71485 z m -3.59375,-1.05469 q -0.0391,-2.94922 -1.66016,-4.70703 -1.60156,-1.75781 -4.25781,-1.75781 -3.00781,0 -4.82422,1.69922 -1.79687,1.69921 -2.07031,4.78515 z" />
        <path
           id="path457"
           d="m 181.4375,410.70703 v 13.20313 h -3.59375 v -13.08594 q 0,-3.10547 -1.21094,-4.64844 -1.21094,-1.54297 -3.63281,-1.54297 -2.91016,0 -4.58984,1.85547 -1.67969,1.85547 -1.67969,5.05859 v 12.36329 h -3.61328 v -21.875 h 3.61328 v 3.39843 q 1.28906,-1.97265 3.02734,-2.94922 1.75781,-0.97656 4.04297,-0.97656 3.76953,0 5.70313,2.34375 1.93359,2.32422 1.93359,6.85547 z" />
        <path
           id="path459"
           d="m 202.55078,402.67969 v 3.39843 q -1.52344,-0.78125 -3.16406,-1.17187 -1.64063,-0.39063 -3.39844,-0.39063 -2.67578,0 -4.02344,0.82032 -1.32812,0.82031 -1.32812,2.46093 0,1.25 0.95703,1.97266 0.95703,0.70313 3.84766,1.34766 l 1.23046,0.27343 q 3.82813,0.82032 5.42969,2.32422 1.6211,1.48438 1.6211,4.16016 0,3.04687 -2.42188,4.82422 -2.40234,1.77734 -6.62109,1.77734 -1.75782,0 -3.67188,-0.35156 -1.89453,-0.33203 -4.0039,-1.01563 v -3.71093 q 1.99218,1.03515 3.92578,1.5625 1.93359,0.50781 3.82812,0.50781 2.53906,0 3.90625,-0.85938 1.36719,-0.8789 1.36719,-2.46093 0,-1.46485 -0.99609,-2.2461 -0.97657,-0.78125 -4.31641,-1.5039 l -1.25,-0.29297 q -3.33984,-0.70313 -4.82422,-2.14844 -1.48437,-1.46484 -1.48437,-4.00391 0,-3.08593 2.1875,-4.76562 2.1875,-1.67969 6.21093,-1.67969 1.99219,0 3.75,0.29297 1.75782,0.29297 3.24219,0.87891 z" />
        <path
           id="path461"
           d="m 227.62891,410.70703 v 13.20313 h -3.59375 v -13.08594 q 0,-3.10547 -1.21094,-4.64844 -1.21094,-1.54297 -3.63281,-1.54297 -2.91016,0 -4.58985,1.85547 -1.67969,1.85547 -1.67969,5.05859 v 12.36329 h -3.61328 v -30.39063 h 3.61328 v 11.91406 q 1.28907,-1.97265 3.02735,-2.94922 1.75781,-0.97656 4.04297,-0.97656 3.76953,0 5.70312,2.34375 1.9336,2.32422 1.9336,6.85547 z" />
        <path
           id="path463"
           d="m 234.79687,402.03516 h 3.59375 v 21.875 h -3.59375 z m 0,-8.51563 h 3.59375 v 4.55078 h -3.59375 z" />
        <path
           id="path465"
           d="m 256.98437,393.51953 v 2.98828 h -3.4375 q -1.93359,0 -2.69531,0.78125 -0.74219,0.78125 -0.74219,2.8125 v 1.9336 h 5.91797 v 2.79296 h -5.91797 v 19.08204 h -3.61328 v -19.08204 h -3.4375 v -2.79296 h 3.4375 v -1.52344 q 0,-3.65235 1.69922,-5.3125 1.69922,-1.67969 5.39063,-1.67969 z" />
        <path
           id="path467"
           d="m 262.84375,395.82422 v 6.21094 h 7.40234 v 2.79296 h -7.40234 v 11.875 q 0,2.67579 0.72266,3.4375 0.74218,0.76172 2.98828,0.76172 h 3.6914 v 3.00782 h -3.6914 q -4.16016,0 -5.74219,-1.54297 -1.58203,-1.5625 -1.58203,-5.66407 v -11.875 h -2.63672 v -2.79296 h 2.63672 v -6.21094 z" />
      </g>
      <path
         style="fill:#da2430;stroke-width:0.08327977"
         d="m 92.270889,116.51578 -3.40357,1.23837 c 0.0437,0.54565 0.13759,1.08464 0.26983,1.6128 l 3.23276,-1.17733 c -0.10355,-0.54565 -0.14067,-1.10928 -0.0983,-1.67392 m 15.039911,-3.76342 c -0.23736,-0.4896 -0.51192,-0.96279 -0.82997,-1.40876 l -3.40256,1.23837 c 0.396,0.40508 0.72812,0.86029 0.99993,1.34714 l 3.23268,-1.17691 v 1.6e-4 z"
         id="path7830" />
      <path
         style="fill:#da2430;stroke-width:0.08327977"
         d="m 101.27428,112.73221 c -0.42808,-0.37142 -0.9116,-0.69205 -1.449741,-0.94306 h -2.5e-4 c -3.15956,-1.47305 -6.92963,-0.1026 -8.40267,3.0582 a 6.1607054,6.1607054 0 0 0 -0.22095,0.54024 c -0.18387,0.53491 -0.29131,1.08181 -0.33237,1.62779 l -0.0122,0.005 -7.9e-4,0.0119 -2.04835,0.74535 -1.31798,0.4871 -8e-4,-0.007 -0.0362,0.0132 c -0.12789,-1.61854 0.14491,-3.29055 0.87886,-4.86445 a 9.8230171,9.8230171 0 0 1 0.30705,-0.60345 c 2.41971,-4.50676 7.92532,-6.39055 12.568511,-4.19147 a 9.6033249,9.6033249 0 0 1 2.54478,1.75504 9.7101734,9.7101734 0 0 1 1.31416,1.49404 l -3.40257,1.2387 a 6.636566,6.636566 0 0 0 -0.0529,-0.0534 l -0.0103,0.003 a 6.5466238,6.5466238 0 0 0 -0.32636,-0.31629 z"
         id="path7832" />
      <path
         style="fill:#e82429;stroke-width:0.08327977"
         d="m 87.642279,123.76137 -0.005,0.002 a 9.8606597,9.8606597 0 0 1 -1.52051,-3.29562 l 3.23333,-1.17757 1.6e-4,2.3e-4 0.003,0.0104 0.021,-0.008 5.3e-4,10e-4 c 0.16607,0.87943 0.51176,1.71847 1.01586,2.45625 a 6.269885,6.269885 0 0 0 0.64307,0.77667 l -0.0135,0.005 0.0245,0.0257 -3.37183,1.24669 c -0.009,-0.0142 -0.02,-0.0286 -0.0299,-0.043 z"
         id="path7834" />
      <path
         style="fill:#da2430;stroke-width:0.08327977"
         d="m 100.48435,122.89118 c -1.753111,1.08406 -4.001831,1.2935 -6.005541,0.35911 a 6.2575596,6.2575596 0 0 1 -1.84199,-1.30708 l -3.39549,1.2362 0.0261,0.0364 -0.001,6.9e-4 c 0.93356,1.33381 2.20708,2.44876 3.76974,3.18945 3.37034,1.59589 7.194281,1.04108 9.963091,-1.10629 1.23987,-0.92873 2.27495,-2.1666 2.97417,-3.66597 0.73444,-1.57358 1.00569,-3.24492 0.87569,-4.86221 l -0.0945,0.0345 c -7.9e-4,-0.0173 -0.002,-0.0346 -0.003,-0.052 l -3.37198,1.24562 1.7e-4,2.3e-4 a 6.3673223,6.3673223 0 0 1 -0.56682,2.20358 c -0.52591,1.14535 -1.34613,2.05768 -2.32683,2.68769 z"
         id="path7836" />
      <path
         style="fill:#e82429;stroke-width:0.08327977"
         d="m 104.23919,113.87056 0.0506,-0.0185 v -9e-5 a 9.8046958,9.8046958 0 0 1 0.95387,3.50233 l -3.39557,1.23537 0.001,-0.0253 -0.0642,0.0237 c 0.0925,-1.25652 -0.18945,-2.50614 -0.78573,-3.59127 l 3.21027,-1.18674 1.7e-4,-2.3e-4 c 0.0103,0.0202 0.0192,0.0405 0.0288,0.0608 z"
         id="path7838" />
      <path
         style="fill:#c22035;stroke-width:0.08327977"
         d="m 92.275059,116.49588 -3.3795,1.24886 c 0.0433,0.55048 0.13657,1.09396 0.26808,1.62662 l 3.21009,-1.1874 c -0.10383,-0.55148 -0.14116,-1.11911 -0.0974,-1.68842 m 14.933821,-3.79481 c -0.23567,-0.49376 -0.5085,-0.97087 -0.82431,-1.42066 l -3.37858,1.24886 c 0.39308,0.40857 0.72286,0.86761 0.99269,1.35871 l 3.20977,-1.18724 5.3e-4,2.3e-4 z"
         id="path7840" />
      <path
         style="fill:#ac223b;stroke-width:0.08327977"
         d="m 88.895379,117.74499 3.37134,-1.23496 -0.0137,0.67732 -3.25257,1.22829 -0.10543,-0.67148 z m 14.112431,-5.2263 3.42388,-1.17492 0.35586,0.53708 -3.32669,1.17599 -0.45254,-0.53841 z"
         id="path7842" />
      <path
         style="fill:#b92135;stroke-width:0.08327977"
         d="m 89.266479,123.20382 3.37534,-1.2283 1.02084,0.96313 -3.53964,1.32881 -0.85636,-1.06398 z m 17.540041,-6.44078 -3.42819,1.2362 -0.2525,1.37229 3.65532,-1.30275 0.0259,-1.30557 z"
         id="path7844" />
      <g
         id="g7945"
         transform="matrix(0.22151964,0,0,0.22151964,19.629962,107.61692)">
        <path
           class="st0"
           d="m 52.8,74.65 c 3.3,9.72 17.1,10.07 20.2,0 3.65,3.29 14.46,3.94 18.48,6.19 1.27,0.71 2.42,1.61 3.34,2.83 0.62,0.82 1.45,2.33 2.07,4.02 H 28.9 c 0.63,-1.69 1.45,-3.2 2.07,-4.02 0.92,-1.22 2.07,-2.12 3.34,-2.83 4.03,-2.24 14.84,-2.9 18.49,-6.19 z M 50.51,0 H 75.3 c 1.07,0 1.94,0.87 1.94,1.94 v 17.41 c 0,1.07 -0.87,1.94 -1.94,1.94 H 50.51 c -1.07,0 -1.94,-0.87 -1.94,-1.94 V 1.94 C 48.57,0.87 49.44,0 50.51,0 Z M 76.09,5.43 H 49.8 v 14.11 c 0,0.15 0.06,0.28 0.16,0.38 0.1,0.1 0.23,0.16 0.38,0.16 h 25.21 c 0.15,0 0.28,-0.06 0.38,-0.16 0.1,-0.1 0.16,-0.23 0.16,-0.38 V 5.43 Z M 73.45,2.18 c 0.53,0 0.96,0.43 0.96,0.96 0,0.53 -0.43,0.96 -0.96,0.96 -0.53,0 -0.96,-0.43 -0.96,-0.96 0,-0.53 0.43,-0.96 0.96,-0.96 z m -6.5,0 c 0.53,0 0.96,0.43 0.96,0.96 0,0.53 -0.43,0.96 -0.96,0.96 -0.53,0 -0.96,-0.43 -0.96,-0.96 0,-0.53 0.43,-0.96 0.96,-0.96 z m 3.25,0 c 0.53,0 0.96,0.43 0.96,0.96 0,0.53 -0.43,0.96 -0.96,0.96 -0.53,0 -0.96,-0.43 -0.96,-0.96 0,-0.53 0.43,-0.96 0.96,-0.96 z m -10.84,9.2 -3.16,1.19 3.16,1.2 v 2.78 L 54.45,13.77 V 11.38 L 59.36,8.6 Z m 12,0 v 2.39 l -4.91,2.78 v -2.78 l 3.16,-1.2 -3.16,-1.19 V 8.59 Z m -8.51,5.95 H 60.76 L 63.34,7.27 h 2.09 z m 57.04,38.31 c 0.04,0 0.08,0 0.12,0.01 0.25,-0.44 0.48,-0.91 0.7,-1.4 0.01,-0.01 0.01,-0.02 0.02,-0.02 0.31,-0.75 0.56,-1.52 0.71,-2.32 0.12,-0.62 0.21,-1.26 0.23,-1.91 h -3.76 c -0.07,1.91 -0.64,3.79 -1.7,5.64 z m -0.65,1.2 h -3.78 c -1.15,1.67 -2.7,3.31 -4.63,4.93 0.3,-0.04 0.61,-0.09 0.9,-0.15 0.81,-0.16 1.59,-0.4 2.35,-0.73 0.76,-0.33 1.48,-0.71 2.14,-1.16 0.66,-0.44 1.27,-0.94 1.84,-1.51 0.42,-0.43 0.83,-0.89 1.18,-1.38 z m -11.64,4.93 c -1.94,-1.62 -3.49,-3.26 -4.63,-4.93 h -3.78 c 0.36,0.49 0.76,0.95 1.2,1.39 0.57,0.57 1.17,1.07 1.84,1.51 0.66,0.44 1.37,0.83 2.14,1.16 0.01,0.01 0.02,0.01 0.02,0.02 0.75,0.31 1.52,0.56 2.32,0.71 0.29,0.05 0.59,0.09 0.89,0.14 z m -9.2,-6.13 h 3.81 c -1.06,-1.85 -1.63,-3.74 -1.7,-5.64 h -3.76 c 0.03,0.66 0.11,1.29 0.23,1.91 0.16,0.81 0.4,1.59 0.73,2.35 0.2,0.48 0.43,0.94 0.69,1.38 z M 96.75,48.8 h 3.78 c 0.14,-1.87 0.76,-3.75 1.87,-5.64 h -4 c -0.25,0.44 -0.48,0.9 -0.69,1.39 -0.01,0.01 -0.01,0.02 -0.02,0.02 -0.31,0.75 -0.56,1.52 -0.71,2.32 -0.13,0.62 -0.21,1.25 -0.23,1.91 z m 2.43,-6.84 h 3.99 c 1.14,-1.64 2.64,-3.29 4.51,-4.95 -0.34,0.04 -0.66,0.09 -0.98,0.16 -0.81,0.16 -1.59,0.4 -2.35,0.73 -0.76,0.33 -1.48,0.71 -2.14,1.16 -0.66,0.44 -1.27,0.94 -1.84,1.51 -0.43,0.43 -0.83,0.89 -1.19,1.39 z m 11.55,-4.95 c 1.88,1.66 3.38,3.31 4.51,4.95 h 3.99 c -0.36,-0.49 -0.76,-0.95 -1.2,-1.39 -0.57,-0.57 -1.17,-1.07 -1.84,-1.51 -0.66,-0.44 -1.37,-0.83 -2.14,-1.16 -0.01,-0.01 -0.02,-0.01 -0.02,-0.02 -0.75,-0.31 -1.52,-0.56 -2.32,-0.71 -0.32,-0.06 -0.65,-0.11 -0.98,-0.16 z m 9.29,6.15 h -4 c 1.11,1.89 1.73,3.77 1.87,5.64 h 3.78 c -0.03,-0.66 -0.11,-1.29 -0.23,-1.91 -0.16,-0.81 -0.4,-1.59 -0.73,-2.35 -0.21,-0.48 -0.44,-0.94 -0.69,-1.38 z m -13.56,-7.17 c 0.89,-0.18 1.8,-0.27 2.75,-0.27 0.94,0 1.85,0.09 2.75,0.27 0.88,0.17 1.72,0.43 2.55,0.79 0.01,0 0.02,0.01 0.03,0.02 0.82,0.35 1.6,0.78 2.33,1.26 0.73,0.48 1.4,1.04 2.02,1.66 0.62,0.62 1.17,1.29 1.66,2.02 0.49,0.73 0.91,1.51 1.26,2.33 0.36,0.84 0.62,1.7 0.8,2.58 0.18,0.89 0.27,1.8 0.27,2.75 0,0.94 -0.09,1.85 -0.27,2.75 -0.17,0.88 -0.43,1.72 -0.79,2.55 0,0.01 -0.01,0.02 -0.02,0.03 -0.35,0.83 -0.78,1.6 -1.26,2.33 -0.48,0.73 -1.04,1.4 -1.66,2.02 -0.62,0.62 -1.29,1.17 -2.02,1.66 -0.73,0.49 -1.51,0.91 -2.33,1.26 -0.84,0.36 -1.7,0.62 -2.58,0.8 -0.89,0.18 -1.8,0.27 -2.75,0.27 -0.94,0 -1.85,-0.09 -2.75,-0.27 -0.88,-0.17 -1.72,-0.43 -2.55,-0.79 -0.01,0 -0.02,-0.01 -0.03,-0.02 -0.82,-0.35 -1.6,-0.78 -2.33,-1.26 -0.73,-0.48 -1.4,-1.04 -2.02,-1.66 -0.62,-0.62 -1.17,-1.29 -1.66,-2.02 -0.49,-0.73 -0.91,-1.51 -1.26,-2.33 -0.36,-0.84 -0.62,-1.7 -0.8,-2.58 -0.18,-0.89 -0.27,-1.8 -0.27,-2.75 0,-0.94 0.09,-1.85 0.27,-2.75 0.17,-0.88 0.43,-1.72 0.79,-2.55 0,-0.01 0.01,-0.02 0.02,-0.03 0.35,-0.83 0.78,-1.6 1.26,-2.33 0.48,-0.73 1.04,-1.4 1.66,-2.02 0.62,-0.62 1.29,-1.17 2.02,-1.66 0.73,-0.49 1.51,-0.91 2.33,-1.26 0.83,-0.35 1.69,-0.61 2.58,-0.8 z m 3.35,1.8 v 4.17 h 3.97 c -1.05,-1.38 -2.37,-2.77 -3.97,-4.17 z m 0,5.37 v 5.64 h 6.88 c -0.16,-1.85 -0.85,-3.73 -2.08,-5.64 z m 0,6.84 v 5.64 h 5.01 c 1.19,-1.87 1.82,-3.75 1.89,-5.64 z m 0,6.84 v 4.22 c 1.7,-1.39 3.09,-2.8 4.17,-4.22 z m -1.2,4.21 v -4.22 h -4.17 c 1.07,1.42 2.46,2.83 4.17,4.22 z m 0,-5.41 V 50 h -6.91 c 0.07,1.89 0.71,3.77 1.89,5.64 z m 0,-6.84 v -5.64 h -4.81 c -1.23,1.91 -1.92,3.79 -2.07,5.64 z m 0,-6.84 v -4.17 c -1.61,1.4 -2.93,2.79 -3.97,4.17 z M 9.43,49.4 5,42.97 c 0.78,-0.94 1.46,-1.94 2.05,-2.99 0.61,-1.09 1.12,-2.23 1.56,-3.42 l 7.8,0.75 z m 1.46,0.88 7.01,-12.15 12.09,6.98 -0.96,1.66 -9.62,-5.55 c -0.52,-0.3 -1.2,-0.12 -1.5,0.4 -0.3,0.52 -0.12,1.2 0.4,1.5 l 9.62,5.55 -0.9,1.55 -9.62,-5.55 c -0.52,-0.3 -1.2,-0.12 -1.5,0.4 -0.3,0.52 -0.12,1.2 0.4,1.5 l 9.62,5.55 -0.9,1.55 -9.62,-5.55 c -0.52,-0.3 -1.2,-0.12 -1.5,0.4 -0.3,0.52 -0.12,1.2 0.4,1.5 l 9.62,5.55 -0.96,1.66 z M 3.48,40.78 0,35.73 5.97,36.31 c -0.34,0.84 -0.72,1.65 -1.15,2.42 -0.39,0.72 -0.84,1.4 -1.34,2.05 z m 13.89,43.38 c 0.51,1.14 0,2.48 -1.15,2.99 -1.14,0.51 -2.48,0 -2.99,-1.15 -1.27,-2.84 -2.31,-5.79 -3.07,-8.84 -0.75,-2.99 -1.25,-6.09 -1.48,-9.26 -0.09,-1.25 0.85,-2.34 2.11,-2.43 1.25,-0.09 2.34,0.85 2.43,2.11 0.21,2.9 0.67,5.73 1.35,8.47 0.7,2.83 1.65,5.53 2.8,8.11 z M 26.91,30 c -0.93,0.83 -2.36,0.75 -3.2,-0.18 -0.83,-0.93 -0.75,-2.36 0.18,-3.2 2.12,-1.89 4.6,-3.83 7.16,-5.5 2.3,-1.5 4.67,-2.79 6.93,-3.67 1.17,-0.45 2.48,0.13 2.93,1.3 0.45,1.17 -0.13,2.48 -1.3,2.93 -1.95,0.75 -4.04,1.9 -6.1,3.24 -2.36,1.55 -4.66,3.34 -6.6,5.08 z M 85.7,20.39 c -1.08,-0.63 -1.44,-2.02 -0.81,-3.1 0.63,-1.08 2.02,-1.44 3.1,-0.81 2.54,1.48 4.95,3.18 7.2,5.05 2.27,1.88 4.38,3.95 6.3,6.16 0.82,0.95 0.72,2.38 -0.23,3.2 -0.95,0.82 -2.38,0.72 -3.2,-0.23 -1.77,-2.04 -3.7,-3.93 -5.76,-5.65 -2.06,-1.7 -4.27,-3.25 -6.6,-4.62 z m 25.16,50.18 c 0.16,-1.24 1.3,-2.12 2.54,-1.95 1.24,0.17 2.12,1.3 1.95,2.54 -0.34,2.56 -0.85,5.05 -1.53,7.45 -0.69,2.47 -1.56,4.85 -2.57,7.15 -0.51,1.15 -1.85,1.67 -2.99,1.16 -1.15,-0.51 -1.67,-1.85 -1.16,-2.99 0.94,-2.12 1.73,-4.3 2.36,-6.54 0.62,-2.23 1.1,-4.51 1.4,-6.82 z M 50.27,54.51 c -0.69,0.03 -1.22,0.17 -1.57,0.41 -0.2,0.14 -0.35,0.31 -0.45,0.52 -0.11,0.23 -0.16,0.51 -0.15,0.84 0.03,0.95 0.53,2.19 1.49,3.62 l 0.01,0.02 v 0 l 3.12,4.97 c 1.25,1.99 2.57,4.02 4.2,5.51 1.57,1.43 3.47,2.41 5.99,2.41 2.73,0.01 4.72,-1 6.34,-2.52 1.68,-1.58 3.01,-3.74 4.32,-5.89 l 3.52,-5.8 c 0.66,-1.5 0.89,-2.5 0.74,-3.09 -0.09,-0.35 -0.48,-0.52 -1.13,-0.55 -0.14,-0.01 -0.28,-0.01 -0.43,0 -0.16,0 -0.32,0.02 -0.49,0.03 -0.09,0.01 -0.18,0 -0.27,-0.02 -0.31,0.02 -0.64,0 -0.96,-0.05 l 1.21,-4.84 C 66.82,51.49 60.13,44.85 50.68,48.75 l 0.68,5.79 c -0.4,0.04 -0.76,0.02 -1.09,-0.03 z M 77.9,53.39 c 0.87,0.26 1.42,0.81 1.65,1.7 0.25,0.98 -0.02,2.37 -0.86,4.27 v 0 c -0.02,0.03 -0.03,0.07 -0.05,0.1 l -3.56,5.86 c -1.37,2.26 -2.77,4.52 -4.62,6.27 -1.93,1.8 -4.3,3 -7.54,2.99 -3.03,-0.01 -5.31,-1.17 -7.18,-2.88 -1.81,-1.65 -3.19,-3.79 -4.5,-5.87 l -3.12,-4.97 c -1.14,-1.7 -1.74,-3.26 -1.77,-4.54 -0.02,-0.6 0.08,-1.15 0.31,-1.63 0.23,-0.5 0.59,-0.92 1.07,-1.25 0.23,-0.15 0.48,-0.28 0.76,-0.39 -0.2,-2.69 -0.28,-5.59 -0.15,-8.43 0.07,-0.67 0.2,-1.35 0.39,-2.02 0.8,-2.85 2.8,-4.16 5.28,-5.73 1.37,-0.87 2.86,-1.53 4.43,-1.97 0.99,-0.28 -0.84,-3.45 0.18,-3.56 4.96,-0.51 12.98,4.02 16.45,7.76 1.73,1.88 2.82,3.37 3.06,6.66 z"
           id="path7943" />
      </g>
      <path
         d="m 149.73989,127.10032 h 6.51716 a 1.0450375,1.0450375 0 0 0 0.45083,-0.10196 1.0641541,1.0641541 0 0 0 0.36162,-0.28515 1.0561888,1.0561888 0 0 0 0.23896,-0.6643 v -6.49007 a 1.0450375,1.0450375 0 0 0 -0.0844,-0.411 1.0545958,1.0545958 0 0 0 -0.57031,-0.56235 1.0450375,1.0450375 0 0 0 -0.39666,-0.0749 h -6.51716 a 1.0354792,1.0354792 0 0 0 -0.3871,0.0765 1.025921,1.025921 0 0 0 -0.33614,0.21347 1.0514096,1.0514096 0 0 0 -0.24054,0.34729 1.0036184,1.0036184 0 0 0 -0.0876,0.411 v 6.49007 a 1.0418514,1.0418514 0 0 0 0.0685,0.36959 1.0705263,1.0705263 0 0 0 0.19117,0.31861 l 0.0414,0.043 a 1.0960149,1.0960149 0 0 0 0.3186,0.22143 1.0689332,1.0689332 0 0 0 0.4349,0.0956 z m 8.39535,-14.89178 4.25344,-4.24866 a 0.98609486,0.98609486 0 0 1 0.35365,-0.2278 0.99406009,0.99406009 0 0 1 0.42216,-0.0542 0.95582703,0.95582703 0 0 1 0.58783,0.27719 l 4.22953,4.22953 a 0.95582703,0.95582703 0 0 1 0.21188,0.31861 0.97653658,0.97653658 0 0 1 -0.21188,1.04822 l -4.24705,4.25502 a 0.95582703,0.95582703 0 0 1 -0.30268,0.20233 0.94308263,0.94308263 0 0 1 -0.35685,0.0797 0.97335054,0.97335054 0 0 1 -0.38391,-0.0685 0.91440781,0.91440781 0 0 1 -0.32658,-0.21348 l -4.22954,-4.23431 a 0.97016435,0.97016435 0 0 1 -0.28037,-0.6181 v -0.051 a 0.97812966,0.97812966 0 0 1 0.28197,-0.69456 z m -8.39535,4.9703 h 6.51716 a 1.0450375,1.0450375 0 0 0 0.81245,-0.38712 1.029107,1.029107 0 0 0 0.17683,-0.31861 1.0498166,1.0498166 0 0 0 0.0621,-0.35206 v -6.4821 a 1.0530027,1.0530027 0 0 0 -0.0844,-0.411 1.0545958,1.0545958 0 0 0 -0.57031,-0.56394 1.0450375,1.0450375 0 0 0 -0.39029,-0.0765 h -6.52353 a 1.0354792,1.0354792 0 0 0 -0.3871,0.0765 1.025921,1.025921 0 0 0 -0.33614,0.21347 1.0514096,1.0514096 0 0 0 -0.24054,0.34728 1.0052114,1.0052114 0 0 0 -0.0876,0.41419 v 6.49007 a 1.0322931,1.0322931 0 0 0 0.0685,0.36799 1.0514096,1.0514096 0 0 0 0.19117,0.31861 l 0.0414,0.043 a 1.0960149,1.0960149 0 0 0 0.3186,0.22143 1.0689332,1.0689332 0 0 0 0.4349,0.0956 z m 6.51874,-1.04664 h -6.51874 v 0 -6.49803 c 0.55916,0 6.52034,0 6.53149,0 0,0.54801 0,6.49166 0,6.49485 z m 3.54135,10.96812 h 6.51714 a 1.0450375,1.0450375 0 0 0 0.45083,-0.10196 1.0641541,1.0641541 0 0 0 0.36163,-0.28515 1.0561888,1.0561888 0 0 0 0.23895,-0.6643 v -6.49007 a 1.0450375,1.0450375 0 0 0 -0.0844,-0.40941 1.0545958,1.0545958 0 0 0 -0.57668,-0.56394 1.0450375,1.0450375 0 0 0 -0.3903,-0.0765 h -6.51714 a 1.0753054,1.0753054 0 0 0 -0.72325,0.28994 1.0514096,1.0514096 0 0 0 -0.24055,0.34888 1.0036184,1.0036184 0 0 0 -0.0876,0.41259 v 6.49007 a 1.0418514,1.0418514 0 0 0 0.0685,0.36959 1.0705263,1.0705263 0 0 0 0.19117,0.3186 l 0.0414,0.043 a 1.0960149,1.0960149 0 0 0 0.31861,0.22143 1.0689332,1.0689332 0 0 0 0.43489,0.0956 z m 6.51874,-1.04664 h -6.51874 v 0 -6.49484 c 0.55916,0 6.52033,0 6.53148,0 0,0.54801 0,6.49166 0,6.49484 z m -10.06009,0 h -6.51874 v 0 -6.49802 c 0.55916,0 6.52034,0 6.53149,0 0,0.54801 0,6.49165 0,6.49484 z"
         id="path8023"
         style="stroke-width:0.15930451" />
    </g>
  </g>
</svg>
